<mxfile host="app.diagrams.net" modified="2023-04-10T06:12:30.984Z" agent="Mozilla/5.0 (Windows NT 10.0; Win64; x64) AppleWebKit/537.36 (KHTML, like Gecko) Chrome/111.0.0.0 Safari/537.36" etag="JgnmsSBCC2DiwcjmiUrB" version="21.1.5" type="github">
  <diagram name="第 1 页" id="nVwiyCjQuJzwrV2Pt-JO">
    <mxGraphModel dx="1434" dy="764" grid="1" gridSize="10" guides="1" tooltips="1" connect="1" arrows="1" fold="1" page="1" pageScale="1" pageWidth="827" pageHeight="1169" math="0" shadow="0">
      <root>
        <mxCell id="0" />
        <mxCell id="1" parent="0" />
        <mxCell id="9NufvOx4gk8zNC-zm_X0-5" value="" style="group" vertex="1" connectable="0" parent="1">
          <mxGeometry x="50" y="120" width="580" height="360" as="geometry" />
        </mxCell>
        <mxCell id="9NufvOx4gk8zNC-zm_X0-1" value="" style="shape=image;verticalLabelPosition=bottom;labelBackgroundColor=default;verticalAlign=top;aspect=fixed;imageAspect=0;image=data:image/png,iVBORw0KGgoAAAANSUhEUgAAAQAAAAEACAAAAAB5Gfe6AAAu90lEQVR4nO29W6+sSZIltJaZ+xcR+3Luea+urEtXV1X3TPVooJvLIM2gASQEj2iEEBrEG6/8Dl555gfwgnjgAZDQNKKhNc1At2C6uiqrMiszKytPZp6T57JvEZ+72eLBv31qRnBO5T65MwuNYuU9pIwIt8/d3GzZMgtgjz322GOPPfbYY4899thjjz322GOPPfbYY4899thjjz322GOPPfbYY4899thjjz322GOPPfbYY4899thjjz322GOPPfbY418Q8Lf9BX6NskaeA8duRlIZvYeIpq/0U///YIDDzapQmo6hR8Ir0+TFqb49Pz3fRV5IPb+6D//tG+DO6huv31ybMmGmDvNibqbs27OnT0/Oe/aTOVL4aqzw2zSArwpK+aO7tw6KEiShTBlIAoHiarvz09Pz3fnZ2fncZknXfxx+WwagWzn+1jFu3ZkqU4oEazFIBEj0bsXMvKDtol88efT46elF63Nc9xcp1/2GXwhmm5u37969gafWaC4YkL1Pk2UAcMvGiggk3cu6OHL7+NNPPn26e3zdm+C3sAMI3r536/aNTXGXGemZUPYInxyRsGIRtQRplIwAympl/fSDn3x8ESfX6wt+Cwa4c/vW7ZtH62JWnJmxA0TP6IlSTV3FLVDQkWlGKw4kjb6pD/76x4/05FqPwddvgO+/dvtwPVWaecnIRKRlkooIL4ZIKxaoJiozI7xWoxXNOD7sH/z4l0/xZHd9X+fr9gH2d+4dTl6KG0mxZAYEU8AMghKCRDYU0VjVKYUM8im2sXr77ofvf1Z2p9dmgq95B6z+3qulmtdiEEBKih5miJ5GJU0irUQvJUEYesisFDcLOGir/vTzR0+ffPDZNX2jr9UARz+6+SbrVNyYEYIRUEaKZPROlwCC7ggWiDREBFhqrWhymmjMPm8fPXzvp9fynb5GAxx8481vr42ryaDeIpPFqczMFM3UGg0Jo6yyq1rKzNF7WJlqUQNVADgBUY8/evDRg9lPv+S3+vp8wI3vfOfe2guNQvaACRAIkEoCVtVoAKHsFipISTBAIsmUQQkwQYRNb7xx/qufvfv0xsmXCwy+PgPc/t7dVV1ZRBczvKppnHlJUAJWM2mZhABIgpDMjMQIgoWUEUkQOfd69L17t//p46OzLxUYfH0GWN+c6rqkZQqAuTIiQaUyAUhgmcMFgWP1EExIJZUpGjLlDohGokef7v5Lx//Hg9h+GQt8RQY4PnLjxacA34B/ugPu3XtrNa1dcIuUssMJKkQJUMoKzctMAkBe7gMAECBJNEHK4QIgCb37we/bXzx4bIfrfnbRXypA+ioMcHNlr7+6cjxZA/g+6s+2hu98b1MnB4xgDguY0yNAKUPKAL229BEImBkJyYAR/UspgZBEkMqQoffDHxz85KP5xr3y+NNHpy9jgeu/Bd4q3zoq08qVIhApcZpaubWBOccSkmqzqi9hT0b0iLRScI46HrO7m1qWYnOLMk3F1YUwmAMyY0YEV+5H/uD9dx+uXzne3v/V47z6YbjWHbB6HcS/f6DIiKDTSMFmrPvjSEpJUaC5QM3dDGmmNA/vrUUERVGZkiRDZkpYmAIpBAghiGZIwei+8+Mfvvre+x/d++ard955fHHlZPEaDbC++cY/JCFltN3FXA+KETSLYmexc0ulgSQhohh3F6UgloDQYa01J0ETkcp09QQYIZAELYNiyB0IUaFiQs6qr9554yf34w/+ldf+4qM2X9EC13UEViv8jX+QkCAYMnqzg2nEu+6KszNOGYk09o7iTsbFaa8T4ERGpBRzE+BuGZkyM4VKRQ9M66lCat2LBaoTvUM9prU7UioH9vlf/2z9R99+/09+0XdXs8C17AAn/92/nyGnYAIJaM51JU2iQVMtW9CN/XzuWQ8KIN/wbJebIgg0SO5115EkDYhIShJdIgQhB1nkzpBZiRQVgIKOrd/40eH//Y/O//bhn73z9OJKjuBaDPAf/Wi1Lr0pATM4AKSXdQEJozJDVJpZnp94KV6MkPywPn3Uj3oKysgefmTb1jMJmhICETtPuUBk9HAzkRlpLoGkMpE0os3le5t/8ie7v3f7mz/52dOr3AbXYYD/8PcPNpOS0c2dg9UPWHEYxcwR81qhzs+OphQC5gZl6BHeIEECuT0hDza2VYAOo1JGKQUgQ8reZdCgDVNKQQASpABk+R3/x39a/9U//r1/8r8/nL/4JrgOA9zblFLoZQ6QMKNBKOagM6PJQJonLfv66Hy2akb13npvk+rKaUDG0dE2tuuDuutJGBECYMtHJLNHdqMrQmbKCJlkhDjipPS3/uU//ZOjP/y91zZ//snFF94EX9YA/p8VvO7TuqJLzCRJwuA0GqjWVCxF94Rh2mBbNytX2+0avK43OHCSUsbquJ2enE1rTynkgEmgACglKTMRBRFwI5ABAyDBIKVgqG+3/+lP79585fuftU+/LgMc/Kffj/TV5Ep5ZYbRjTQQABVtp8kBYPf59uBGWZfdelWL2rZpqpOPB0wiiY5yGA8v5klIgCMQ1Aj6wjHCwEDCMMIEmikAMyqTkFR/cPE//y+bW3l8dJ7z12CAN/+tafphBqfJ0mgE0gQaSAOUit5Zi1KcP/0oXzmcJpsnZs+GqRTnOL2iweRsyWO/6CmzlATChudXNDoSRPYuNwkZYinDT5AZckLJzR8/+YvVH9Qbty9C7as1wCtv3Th482+vbe5e14UCQDNQWp5qRijkbsrIePL5fDiRJekgrU5uXPyXAIAwl9KOD88vZmPPxOIbATA7CgEhEiOBzhQ5/hVS5sIqzDf/7sMf+w/unJ633H6x5OglDXDv+9+5e+vmeg2LTSluBAA6hSTG7s3UWH9mXJzg3s1NIdMBkoWkZBppHUlBZq4Qp8y0EsObmBZr9nRCQGZ1Q4SGmyeczAgVhwDl9rW/+z+8d/Mbr5zPga2+yF3wcgb49o/ePl4frGtllV366pGxMmEGZEoopDIjFbyx2ZRisuoSSYAazpuEFUiWkBSBKbe9OFJ0PotUM3MYOQqE6GFGQJIVRjR3B0CwnX33j//s3YObr52c7oriC+yBlzLA9/6N7xwQ1YgCKmhjJwqgJBtuPWGmcZiVtVSQ/Gd5MEAaG50gBSqTtOAqt1GAHPbBYAyQIkFBQWWMlyBRyBQJyKjA2eEPn/z0l9M0gRXef7MjeBkDfOffedvSnIruwwNfkheX3xkCRiwD0LLv4OQ4KIRJJAgqTUn5yIdoZhQkrqKlQxkgLQFKpHRpv0AOhiASzI7ewWxyAOF2fvSji0/sqKFW6/6VGOCb/97vlKRXQ3TQIMTyQCFJpgQgugSOR3S+pdPdAFhicW/LnwQgCiDNPDuRvupZjFCacGlcSuJY/9hUo5aeBT2sp1gqjHCb7/3B7pOnfUoCX+AuvLoB3vgPXp0MiYAYYU5Qghk1YAoSz7a6AtuzmMyKEzSN1YKAQBZB46ALNB8vq3hLs1Rq+ABeskIY258UIpEQuhmQDTSTrBT3jLd2f/nU1xHu9qKFvJwBePMf3qmpcYd1mcLoGAWNsSkl0cYulcTMOJ3drBQnQA2vJpISZAgbNCgkOpAIpVlGKeoJQuOmHNoIKkkOEyYAKDqLS7RSa/FSCc7Tt3Y/OT/kLr7I4q5qAPsHdyroNjyTxnYkoQSUKXgEaEyRSAmKJycw+lSIRC5nAMT4H2XLu0BK0auSQJ/dGJSgZXcoqYQZYzEJSWBEhUmY12lyQzKBtvrmycdYXWib9htvwivvgFsTYBRAuHHwXDAjMzMJjr0BkBSR2T57igorhQIuL/aR0pECqLFrkBkJI0lmwJgAkLh8Ox+xhSFSJMyH74SnkpSkNEnZZRMP3to+RnH2V+9ftwFwyIBkZoPLSY1cbux4msGYl05Oyt39D49umbmPZePSoY/YDQIx6O7MiISTloaD1bRkwiPfJ80AqMMkIWkh0YxQgkSKPmdnKmXurd66e3IiaDq+bgNs/uOjDBmH0yZy3Ic5Kp3L1R+OXOjfnPP41lpWbayfBoi/3gqD9E5J2RMGiI7gUWZXRCATBNJIcwMyoS6BgLoJNHFEVJ3pzESZajHLemNz4aZWv/ez38CQXc0Amz/6Xe+RhFLVihOelDItRjbgRLZcchxlBG/fZNdUiBEfJCnjuCEBQINHzNRSCMhhkt56ZA6HSpp7qU5kT5YYpSRIYVruICCUFOpqVaub7OB2t3J4cbb75i9fHA5eyQDltT+okUownbWsiouKSLcgkKIxU8gYqYsyku5dXmyEvynxGQ+r5YpfwodRBdWIJzJ6z1TSQHN6KbUUZkMyTSPAHD4keRlYpHlZTYUkiINX82kcvuWf8cnTFzrCKxlgeuv2zhIIFBvPWznCOiMyElAIym608aoQ2VHcRmgAOsTLpV96f43Xo+fywIdsIDJkBpsKWNarAnVLKrQkH+MeSiMlwKAs0+ROEFC9rfZweu31T59+8GLi+0oGqPdKQJLCMjNjCf/C3BDj1A/H3h1GwAwi4M4l9V/CvnGzjw2/hPIZu13LhBUzqPfee48gjV4qbVpP7KnoPTvsMoEABKRzuS1BczcqIdj69va02d31Bz99ki9yA1c7AjfMFP+sBQgoRGamRvlGMA/lEsJ5ZkHxIXhbXrtMGMbWH3+LebfddQnmdFfMvfcImZm7lVonp5R93mWkiSQBMwIYXADGxTxqT41wcn376ZPT+eCN1x+8UG59JQPYxpBLfKoRgTCBYuMpKiGNtFXjcqaZGc1snHCYtOzc8RcpkBE5X8ytSQlPmGX0SAA0M/c61coQs213kakczn+EEnBluo23U7QEBRqMPLxz9vDTO4evf/BCAcFVDLB5c2KGCMIAZYxFGUMYT9hkeenahFzKGhC4/JGD7se4+2hEZu9zm7ctYgl6okePRS1E97pesSeAdrHtSAnBpJFKXcYHGqEXso9EE1BavbF5er/g+Man/ZoMcPjtFSMujx+UUMKgkLmNfMDSJDNyuCYalGWxiUGZUpKXyQ0kRG9921obtyuUUI/Q4ArAUteTRxfUdhddzBFGUDRCtEEMpA03k5CRTlKpcnB8ctr88EZ5kabuKgbww5WWtY/AL5VUJIsNTcdIAbmUQJMSHQFLpA3vTwYwtuso+UZEn+fWe+SwV0/1BEYmSC91cgUYu+2uD9e5ZNPjX8ZNKMEpBWwcN6rLrGwsrN64c7h9QShwJQMcTEJhZhKWkeGwbLAlFRo6HsFGcAIpkUZPcrntCJKx3N8gE5kRbddaaFBHyozMJVwWvZTqiFCO9ROCwR3kqDuQhhzZYpqY45OZPTWBzCwHN+69cnrxfDd4FQOUo5oglONhZ9KAdDfl0Dzq0rkhL2+GcI57e6F/RVtOtzQK6fNubj2VmUwtwnmMggDM3RS9RdvNl/esWRkGGBybyxUBghgOF6B6z0KD4Xx+db59tNo9fwtcwQB+cOAjaPVheyLB6kZQozIxDu648Zf/JFPOcVFzUODKcWVltN22tTl6z8wcBuQSIZhZojiZarvWewoA6VP1cZaMy2M18xBJ0pxkZmSElepZps9/8fq9e0f2/A1wFQPc/eFkStcoTWFQeKwOiMtFMy5jUoaMlJSQBQzg0IUiQRFCIiL6btcyMzIzQkNTw8VA5gvdnH173odKimbT2qnQ8m7j/cxMIGC0oSShvKwmSzv45Cff/MHd2yt7vnDkCgawWrRoemiWKYjPQpyFCb308SSzAxm0tOXVJW9TEgCUrbVdyx7Dq+Wv34Qpcx8PWD12F/PgWN3MazFjRIpImQE0iqQ4om9IpC/k1HQ4XTycj+8eHl48lx28ggFYOUcqBTeJrXhxW6Seg+9N07MdPFZDA4BIIyjqktnKULZdn1tkdGT27LnwaIPr8eJIUIrW5jkGwQJzo8SpCRFKJ2DjOkhZcQqGYCmOyDn7tDmYUvX4zs1HF89d1VUMgK6IEccOIr4M0fdyKY5kX4vPo2ekFEGjDIIGdUYApObW5ugBmPWIHkFjJqA00FkKEnTL1lqMhMvczZCJHKnSkl4JokUCiHF+aF7gypyN7qvjw/PNkV/LLaDeCwdFIV/yUR/s7DPvj2U3ZkqW42KTY+zuhSwmYdpuoy3XZmq48aEjkS5rayChiJ4J0szcDCnWJfgwpMZlaEWkQchOpyWMMIqe2Bz9zuZsOlo/nx6+ig8oo/ivTKeLyrAYrn2UuBSgE6kUMkdAwIUe5pIGAyBTbTsjRWXP6BmZzozhALjUxQ1UXHYLLqGvKemRjBjMg1lYejGjmZu13sNtBxanFeOcB99862a7cVifnxJfwQD1yGEORkpIdTNABmJQwBi1IGCQwQLNk/BR9KB+zYBk73OIBLIFomdqEYJqud/NDSA6tARMI7NYQi6ESkktGbZooJkp6GuJilnV6auK1srdO3fs7qE/f1VXygaH04EyDMiIiKkahZEKjdglR2Q6isAj9Rnh68IGCplt1yBR0SPVuhJESMixkuHxLsunAE1K0pBj+8UOlSrPPGY6zaiegzaL7AFWJFsvt27fwN1b13ME2sWSdEcns9PmbV2vSqH7r0sXl5S9iMUuS55OXh4BtdYiA56tJbLHyGdE0Jy2JFvPam0jsqC5CQll876ziTbuTCVjkEJWRinKrUWiFqZFW906Xh3cvn38/GVewQD9QkT0aD0QBsBY1tNqPU3Jpa6pywrwEhBKy2MXncs5jDa3HilT9ADikuEULtlzLoR3gENJD9CLIwM0RCMhc4DI4Q0pRBYnUgYjqXJ0QMXFxe2b1abDw+3zi4RX2QFnURVz78olZoNtp9Vqva5lKlhWPIomI7WBxBH4cNx+UGbb7TJDZpm5MMdLLOHmBpE2suuEDZGcSC+VSpoxstGocfYzBXph9hhnxsA0EjZVxMXj7e2bhBeebq/DAP1srqAtjJebKXPubXuxXq/6VGwphVApLrqPJeYzcIlcFbvt3DNTxuw5lPIEQDP3Ec+StLEj2BbjkEZYhZERWiRToxjlxZG9qTKhdFewGPICHo8/1ys3K6CfP3r+qq5ggPnR2YqFtZ+nlakYlK3l3Nu8W68367roRABc1r4vMyMtjlDZ265FRiQNvWdKYFmIpTJuUyKZGCrZXHKoIBPFzGBFEcJSRgBsKkz1qJNL8FJ691Jte47V2YOTG0cbV/yv/+Mn12KA7WePjyezlFg3EzPAapHZ2m4OIIs/K/kTpoUlgAZvkZbI3uYemZkw6z20lJVlhPkoNy2smQAyRAFmfUY1LqkShkoKMsOoR0U0uHuCtbJ3sCq8zI8enh2iEPFf/uQFq7rKNdgvIGTMqusVdg2AT4p5VhLR16s6qqVcnv3IDBcKRykq2tx6G/p3tRikbspsZLdLNCVQRmipsQO0OO+lso7yifkQB2LxL9EjnYpEIfuuITgVv7h//+nu6alZxO/95On1GABY9Wxtp/U6d+GeESxwT7WMlHLyZ0kqhqBnzEUggFQidi0iY0jbuhYlkUjQn+lsDDR3ppb2KqTi4rRjOj6eyvpgXRYFgggV88k7C82dxlJN5aBu1v386cfvP2Xd/urJOvBfzP/d+bUYIJtRieIr3+qwqGdvacV6G6qNzKks3k6EUUiOQqoAy6UVBBQ4CqKggUNVsBwd0paojcY2SLCM+eSTs0S5eVDXG69TqcWNcBfQc1pq5m5GqWxo8fT8k/v3P9sevH7w6LNbk+M//+wfXYsB5kc7dRYPhK2mHgmPMKNCyh1ing5qKUYYU4PUe8YTCETvInKo5DTKBMyUm+gUmXkZRLnJrPehf4jdtsF8Nfk8n2wvysHB0boWs1qdTBbQFHInkpsp+u5ktzr98FFo++j1ko3RGy/Zoy9ngJMff/8b66FBOKqo6BGYyURhKHYxr7JOU/Hx2BPOJHOpCBEZPTMEDtnGuLSzw92IvKz2LLSzl75tMCpShG2ONtVLMc25Wm9W1Y1mBlEJGDIl9T5rXlu0FmY92Oby6MlFb27+9z/5q+swAE7+or+GxMhFKZlVdZBGRka6VOdVre7FiAwMrmiURITLnTGqxLmkyMWcVCKBsf8Huec6f8oqGlncA+vjWtaTeV1X4+UtO7hYOiVidE/4uppi/tXTeNpK//zjj//Werdt5Y2PnxcKXMkA83unbx3VKjrVt62uVweTwixhTEFzr6VNta54WfQ1ypctMCQ+GFnw0FFSXKHn8gSNtMG2Ovt2dxZTEcYEjaPN+rD4ZG7GzqXMAohOpZwSvLB4kZlQVpvpxi9/+iFK8slu3Xbnp89vpbpabfDg9mYzVZqD4btpxR1XPW30eSF7b76b6tTWk3E8lPEPUcrWIiJjkOqCl+Ig++O+ZlI0N9KIiO28Pc/VZj0SXhJc19VkZu5Qx8KOczRnpHozJEtKvlmX3UX6anP71k1vj3hYPnvn9ZLt8clzq2NXMYDd+N7f2BgdgBSHWTy6VUUaTUwaemTbldVuu67F7dcPH0D23nqLGPQ2SqFXjx4RXhbVjGVmtt12u2s42Nws292iGXcWIyKHUpSZmVadZkaDUTBnoZJWykxaYfi9Pzz48fmdsw8+PLyZu5Pz5xYGrmKA+sr3X7t0zcLKwFLAOjIZUualKXvErmynaVXLcvhHbJRD+Gg5rvpaHRFte7at5nQqM3pXtBZ+VKb1VK32hRoopOQRo2MIOfgiEjFYV7qN0RPRkJGubH26u66/8AfTObA7O3t+hfxKlaE7tyJa0gRh9G6myXxpe5PMS6pFRGtlWq/rVMx1WQkc8vccdU0rU8ntxa71QMupKDOHUGi1Ni9uVKbXJRYcAXKJ6G5JiO7FjSkwHDSOOBq5y1VLZVgx5OG35/tnXYiLs+upDKFskG4tfJGqq4U7VEaztylpBpU+N4WUfepTHenN8qUzOVpnzQvb9uS01800zX3UfchibmYL1YFkRYvBKQERxbKLKuZmpQAKFO9LzdEIZA9ARgZtKhnHb31eSvTd2en8TJj0pQzgBwBL27ZaR+07ZrE6LC5mudvgMdzIDgSy94ipOGzkNq4Uk0Z3M/Z2fnbBqaJ3dSwyCo7LbTQHj/JaLkRydpgQBKvDhiajFGZKRqWNTGpoFLOzWI/Nvdun/cHTOD1r7VqcYL3hAN12QiFgXKldYMqL1rvo7ioGwiGmEBnj6/tSGTWr1kaBS4o+tw7n+XbbQa+ORTYgkjSzke9APSRCppAttJnJXUqUqgBgBiAzl5KdaGa5nYN1unH79N1vvHq+69vn6uavdAQOCyNZ51kyA+UrzbO1zy/WG09FdnN3B2zoOdWeEeEQxjiIUgxSRkRvMmu7LUqxoTVfwpvFYYBMus9zSGBSGj0kUCp7htwQGYA5qN67rQyiZLWYsqV1O7r39LMHR4nnusCrssJESF7arGJwJsybsUadilLK6PSiPibDyAQYEe5GCCGNQSjKyJTgjp7rydFHd89IEjS0JYsd63S+65dieXMKRgMiYchQBAxGRYQWwS5hpSASijjudbU56Hx+bfSK2WCaJ7KU3olmVQKzr+6IyixGRbs4tWgBCKmyWaUR4cUNUERmDv2TpMxiaL3UJdzHEjgOOiFpRgPSKji3EIGkQarF3UY/TZoWWUl0GW1U34gMuntBz1U9eOOtuxfzCxpJr2KAOE+zcad3FUpOGKKbL91vZtbPL3qLUSro6p3KUpSGVEaXMiKThGRTNmV4YNQMMHhwLB69udEtYCvf7XZJSKEsHLLxpZYOQFCLhNsimDDlrtfixWt2rW69cVMnj58fB13JABcf/c69BLz27AGzqGSaOtyMngEYD3zbeu+RdNKZjcs13lMZo9a1kL6hHtEdJg6NEYChjDIqFYXuSJZaa+3RA8hEBW1YQACLeigjMBjZ5NANZi+rAtQadrg6ffTJ2TVphLYfvP16NFiZZD0ihQm0HmajfJVycrPOWITOKJMNliup3iOVmR7wMScue+RlU9RSa8UwwnLzASNpLizRdnNAqRCn4kVdUqaTCo3lAwLdwtwUIfVcr1vbfbbhli+YR3olJ7j74Nt3ZlJFRMserS4er8iG5F8pt0yYQVKpDkg9IGXPlBQh9IweAtSThsAzdT0NQFIBLGTxqqfTmL0fbM93InKXsVqZFfbRPw6lmYb6jl6teEGHe/bJiHJyur5TdE07YDr67P3bU6c8HGyRu9khU2b34YkzJBvNECSLD80gMzPGuYU60FsbBY/QaKYbSlcMmchlMU20omk1oxSL3nOq59suqmFhoDP6YFFwSSKUqZJumW4Ks7iIus3DV9v8gnkCV/IBH7/5y7dvx6h0UpnKoAkKGsHRIrr0/RMwGb3a5aAgLNKvjN5CidFAJfiz/WmM8ZKZIbP5yuVTGhLFs5TV2cUuqAZkFsKQg4xZCC96LYaKDBakOHe6/Mabdz54AR1wtWsw/Pzze5YwZyYxdwKmS1kjBZgyAcFIg5XVytEjM5UASCmi9wzgWcnYGD1Bs5H8A4SNBjpFW6kXV4rmcnebzi6CUEDp4/+GDdHY0kZPWsyBMaW0Vm3byndPrssJQtJsBrgpMtx3XeMq/nULWcZI2ells17XqrYc/iGAi7mPaigXNTl6i5TMtQSDpAlKglTvoyeEgEjzlXu5SKllZlm6FX0MFCLNjKGiiGAkjGY1Th7fvF8+/vjJ89XCV6sLKJCjfuEZYbYN9uSzwvio6UiEed0crqpbRIQkUVJmj7ZoSpaGqcw2CuCRMFMYh8y4DLlRBmL0DAcIOr36eVcMrdmQDiBgEDJNEWa9RUA0o9U6P2342em7T17QQXslA7SH6zbrcrAFKrUb4Rlw2QJBWII2rTebyc2QEZfV8kUEPmq6i2isKWxp/5CG9hopZhZTJmPpChsKAxO9Gi8al25yAmkwMAmEAqy57SFzH1HI+aOJ7372/tkL1nQlA8STO2fNOfyfZD7F7JcDfsZJZMDgZX10MLmAHAJ+SNFbH0MBYItSBsg0cy4l0MHsAEpkqhC5K+uySAe19Jzz0Gw7DhXpTlyOW5OS5poTLLWYZI72+LP12YP3Hl6XXB7Q2aOoS7M8mImiGL2fg6AGAJh7nSx7z5Dm0RQYGb0lzRaRDYa0Q/SlRjAiQHGZGTGU83m+rr4ESsuHsBbaLkKwpTCgSxUyAES36nUq2UW37YMn69OPXrj+qxqg/+p0QyiVUmYESiR91LlgEAUzL57bHZVdFmOYQKTSzIzpTo6bMS0E68NBjiIBtPR7LBOE4qyuq1HKJTaksR7Rd304vnEB8VkUSZa1sVaDwS0ef+4233/h+q/aODn/6sNblkDkcrdx6YjN1OhbMZLZx3iolC9+XTA30BRuNlxiGe0TymRqXOYSCDMNQkEwzCca5SI8qx3aCkNPBSiXbuzLZjzfrGofGhub/PGn7U6ev4ALuLoB4vHBT751E4uSD4RlXSbeGYhR6VVgGQAFJEw0mC9Fj2TBKJsvw3CyZDJyhIAJGgr66EIlgNha1MkNNC43BGCljGr0Mo1jqRQA8KkazEgrtto9fLRe3T+7VgOAh798uHLSxyZOXiqXfXAZGm0Ag8gbnR0iZHWIuanF5VGLbtLdgqmIlOCiuY/sZqR8zLn75G5e6xDKhNSThHpK5KIUJyQYYoZjcFIlH358Om3PrncHwF5//+mtTXWYllmnaQEOTXQuWjcNVSCGv19GYw4t97PxSJebhICD8LEHxjlwgmaKCEgd1szMV6vJaZIyMnpvEZf9UXbZmMXctvWmIEFzPnrvE/QnF+9drwH8zV89fqPATAlLEULBZc/c5bOAL6oogZRSVMtSRvhgyqFyBUZ3+Aj0BtMFtCabihFQbwwpwQiziFZ9oUlTsRuDNNxHrwRS9MqICG2SxVguPvrlbrU9+41DRK5ogN1//92H82iFHBO+IBQqJViKNtZM0ssYoUQwAsg5urlD7CQMI6NKDSWJMH5GQIqWZbMaA/k4BmpCgtLZwpjJMUWoJ41m7iakQTCvU1FEZAuv5nr4Ud6ZH79AG/NyBoB+ju3BUuwHRqVrCLdhCVfSqPRq5sXUA7AxLBAxanujd3w5IePmyxw9BkBPm9ar8wfbg9sbAALTRmCgREIJwmIpjXkxoxwRI5cqK0f2Tlannf3y9PWD914UA7+kAaCzh3cnw1BysQCZSI3JGNRoGfBqUPbi1SF0KzGkkyFx1D0u9UA55soCkGSglVXd3f9od6/SEzQtHVmI0XiHcY0YjaPYzpIx2khlZWLUOevGXJ9+VO48eTjbJ7/BBbzEFJnj+984KiBLZo9LzQ9H2xDpGcnqsmKDqiEgYyiNvBR8iM8CuKURchSRrbBM/QSvTwcbB2QQmM/0EENunoP9GD5GNlq0I1mGHm9SLbb6/J3T79inMz+79hkiwPffff/gZiGlyMFUcpwBUTTS4AwrbsxuMKiGqSJQnEDvQheXKSRYKkGjOwI0r3nBVw6rujLGlEC4RkUREuRj+BxHqMSRI6ZE9Hmi4C7mtP3px6++8vEHH+aLo8CXM8Cf33p3/bu3qkcH6GAXcnQCC1ACXgDHmHDnJrlghV1eFDa50rQM3+IYAAMpBDPCim91tMqmzDFOoGTURX3IHBySGd05OJhxdQwadFfg7hS5e++949+Z3/vw+QrhL2OA++e3fmrfu1sbkibSAqPvdQwyGHxZgZTmNI3wzck0R+/rElkwZNCZyermGaJANyN6Thvt5Og9RCvTxbxocEdSCGpQX4oxRTFFKyYiY8t1AWj+4BftdX386Ius/2VGaT394cmPUe9MIyT3wc8PCWAStnSIQbkUuciswBgoHeleRq0PyC6vhQLCCZkbWrOCSFE9YPQJuzSTgBw5FCFbTWOK5OixL1YAWEmoIUopPt+/uHt09uSLzZR8mWFqD14/+an9/q0iIWDJdGP2jEs6EFQOmsTGQItmhUYiVNRZluHDoqW7IZ7Nz0wlK9tooaG5VZ5ebMqYvjXCR4OVqRKgiynz6oDAooShSyj52f3Nm+tPn3z+lRng59Z6+u8fsFAKlgSZbMDlVCSTloudRoAz3BNElopUNAfgTMiMQFsNZbUihNE8lYTRS+H5YxyUhkVpRBjlhbTsMndPXzqXbUTZ9LIqpx88ffPg/OEnT74yA+AdHDY/+E4prrRcTv84qYkMYalxSgkU0Hu6wVBUs6SCgrloKqTjlIcSwOhJQ18GJ9HddPFod2sTS+sJCSPTTbAUJJ9SGLKMYSL3sl6d//KXxk8++sWDL7aWlxypedZ5sH5tolhGy06MTJVij4zBYI0gn7J106gTZIKu1RJFwUiW/jiqJXI+z9VEJSvntOLOdnayO74xigUggWeja1K1IFmsW6EPOhpmXqZ6/v7PTm49fPDBwy84VvZlh6ruzu7/GHcnW3RfGi28AGnZ4lIUA5jBbDV63QeN0VE1xmckAajnnMzopye+9hStymotzO3phW7esJYkuKQZMBgRlBVrIdDryCCT9FqKnf783c/58PzxF3SBX2Ks7q3D9+17dzcuwUcuBDplVjBK1wkzEx1LoYwA1ZbuCY0J3KCSr5Xa50xbeVHIq29zWmk+O+/T0QG2M8toT4Q5kzSaW3arCoFAGUPqYLVWnvzsHe7ar56vjr8+A2zuffxu/u5rxxQwfi5raFs8a7ZYytRljEoDxjwFsEdMHn2JiwVS5Q7mx33yzYHQ0kvtO5u4O93azYMaF3OWkSygVFfIvBQzRHcrWTvhI6F0qwVP3nnn6Lv/9Qs6hK7RAD+N7/78nz757rfursQw7zEG2ChDVkaon6EyKp4SskXQ1wKih5fhuGKMyM4gJSPd3eeLOMDpaR4c1Zx33YAgQCt1onrA3UerSbUQTZ10E+iej975+e1//dZ0pXW8/GTpn/8cE+9/8IO3jyZnWhs0mEbBIMMiFDPM3GKZr6ekMyLjmSJstL3Z+mbPhJlD1rbarM6exvHN0lvn2rMljGWq1dUtBgdr0xjaM2jnrBXm/bOffPjqv/nGX3zR0/9lDQDg5t/563c/fPsbb7++7h2xjFQww6jiKLOzGkG6kQ7r89Jen0kCGZEoBfO2g+a1Wo8+83A9X9iNY+ySBaWgbWFeqi+SSzMaltKok5J79DLp5IOfnv7ev3b7z/+rkyut4bkKyi8Ce/M/+ek7n9S3vvuDO6P8IURmjHpxtFlWV6VadmUtMe9aCm4U6L4I6k0x9NJp1dXnrrrSk4ujW76bk25O9G2YF3d3thaoxYsNPVV2QbXUXtbbD9+5v/pbP4o/+29PfxMDcI0GgN+e5/ad09X3fvDKelWZUs+YM2nGbHNLTnUq6GPk3txGxhOZGJPyaNxFcRu0afYWrOTuyfretAu1sDKh7VpaLe5ujAi5Wylmnm0MtTWV1cHj/+uvzt78m7/z8M//t6s9/y87Xj8eAPhle/O9p2+/cnR8vLZIYIoARCuwnqkMszR1s8JFBmCRovnSJrtGjimKSlRnZNjhOofMyp5NUki6WYkht4n0DBV6IVg25ZO//Gv+8Lv+53/18yv/+Nw1/MLEBT4Tjy6mg1t3bm0OcqtLtsIx5kaBKLWD9MGYgaRz6HzpcKUxwi2NZpkMq4Qr5cXYx7S9MZWDZr2nDLGDTU5Y+no1v/uXv7r5rZP/Jk5OvlAGfN0GAC7w8RvHTx6+P92598orhxFzjuI2PYBRPrUCjt/VTA2SwEaxq2wvJrc2D4FJyWShjKBBZrZ0WS7iOBqH4otm1VDcWPDZez99/OpbD/7PX73Ud7+mH1o6feez8+3m7Q9+vn7zm/eOplyoXIRSEQgzWhnFMXPBjMYUoKy5zcNyHhuXuk8ZXl1dSriMOcpEMh/ptA2deLrXCWnWLs4+/eB+3qk/+9kL+oNfhC/nBP95HL7R7n2mW2++8eqtjVNgKnpvu912Z8Wnqa5rQc9smaPnl0hU27aD8pSHjDjLm7a1ev7w4F5tgshomTmag2iFozNCCPlqw9OTJ589fPx0W1Zx8fBlf3nyOg0ATG8/Wm/t+N5rr9xaV/fMmOfd+emTc1nZrA9uHR9smGPGlDLgph4T55AO1z1i1wxY1fZpu3e7ZI/LOaNDTOsFIFnM0HOqevrhhw/PZpukdv9FGpAX43oNAPCN7dQ1Hd88WFXNG0W23W7blLJycPv45r2blaJxtNATfYuVztvmZm2tK3dzXRU9eVrvHJdskRmCiDEZx8cv0jrhE08++uCjk3prmuPs0/abK2DP/8LXuPgFr+e2pRW3fnGLcAl0aj1diPXG3Xt3NrUYSzHSEH3braj7wdR3W3hGBdQvLrQ5WiGj56KYHdMT4QaybNbt/s/ePy8Hd1Znn3wUj38z+f18fAUG+P/Gm69p+vwU0+bm7RubwMHR5HW9drU5reaWk3adXsx67/Dd01052FTGUhoTJCsEIVsf2ufvvfPx7uBObQ+e8pMv91vkX5sBgDf/5tnnD3br3epwjXp04CyHN24cHRQCcXZRVyk3V/bespZ+etLq0UEBMwAQpBckfL3x0/f++v6Mx9fz08tfowEAAPaHF+fbbT84rJSV9ebo7p2jGyvMpzyyWTJF9Oyok+2enGpzOJXx+3MGsfi0qn7y87/6eLfZfPLh9Xyhr9sAC/7wzZNHpxGsWh8ev/rmvdv9CdeRQwSvEKxM3J3Otl7X0YoBTpsJF598+IsPTo4fveyl9//Gb8kA//aTfwwA9RvnSW7uvvn9N3tbKVuECAwl6HqliwtN1cAyrVfU7tFH7733YC4vkv5eGb8lA9jlkDQAwM2je9/+1qvHiN66mUFtDghW3ErxaqT6+aMH93/14OnuBfNRXwq/JQP886Btbt997RuvHG+cZoB7thDAUtFb312cPHrw+dPTpyf5wg64l/vsa36/lwTX64Ojg+Ojw1WxuU03bx0UGObtyZOnZ9vtbnt+dt7yJX5U9wt88lfwni8DWi3dvbzijIdx56iuK/rc2m7b2nmk8oUj4r/MB381b/sSGL87sgIwZ/Xxy8ID8RWtfY899thjjz322GOPPfbYY4899thjjz322GOPPfbYY4899thjjz322GOPPfbYY4899thjjz322GOPPfbYY4899thjjz322GOPPf5Fwv8DbXHA9CJRFGsAAAAASUVORK5CYII=;direction=north;flipH=0;flipV=1;rotation=0;shadow=0;movable=1;resizable=1;rotatable=1;deletable=1;editable=1;locked=0;connectable=1;" vertex="1" parent="9NufvOx4gk8zNC-zm_X0-5">
          <mxGeometry x="170" width="240" height="240" as="geometry" />
        </mxCell>
        <mxCell id="9NufvOx4gk8zNC-zm_X0-3" value="" style="shape=image;verticalLabelPosition=bottom;labelBackgroundColor=default;verticalAlign=top;aspect=fixed;imageAspect=0;image=data:image/png,iVBORw0KGgoAAAANSUhEUgAAAQAAAAEACAAAAAB5Gfe6AAAu90lEQVR4nO29W6+sSZIltJaZ+xcR+3Luea+urEtXV1X3TPVooJvLIM2gASQEj2iEEBrEG6/8Dl555gfwgnjgAZDQNKKhNc1At2C6uiqrMiszKytPZp6T57JvEZ+72eLBv31qRnBO5T65MwuNYuU9pIwIt8/d3GzZMgtgjz322GOPPfbYY4899thjjz322GOPPfbYY4899thjjz322GOPPfbYY4899thjjz322GOPPfbYY4899thjjz322GOPPfbY418Q8Lf9BX6NskaeA8duRlIZvYeIpq/0U///YIDDzapQmo6hR8Ir0+TFqb49Pz3fRV5IPb+6D//tG+DO6huv31ybMmGmDvNibqbs27OnT0/Oe/aTOVL4aqzw2zSArwpK+aO7tw6KEiShTBlIAoHiarvz09Pz3fnZ2fncZknXfxx+WwagWzn+1jFu3ZkqU4oEazFIBEj0bsXMvKDtol88efT46elF63Nc9xcp1/2GXwhmm5u37969gafWaC4YkL1Pk2UAcMvGiggk3cu6OHL7+NNPPn26e3zdm+C3sAMI3r536/aNTXGXGemZUPYInxyRsGIRtQRplIwAympl/fSDn3x8ESfX6wt+Cwa4c/vW7ZtH62JWnJmxA0TP6IlSTV3FLVDQkWlGKw4kjb6pD/76x4/05FqPwddvgO+/dvtwPVWaecnIRKRlkooIL4ZIKxaoJiozI7xWoxXNOD7sH/z4l0/xZHd9X+fr9gH2d+4dTl6KG0mxZAYEU8AMghKCRDYU0VjVKYUM8im2sXr77ofvf1Z2p9dmgq95B6z+3qulmtdiEEBKih5miJ5GJU0irUQvJUEYesisFDcLOGir/vTzR0+ffPDZNX2jr9UARz+6+SbrVNyYEYIRUEaKZPROlwCC7ggWiDREBFhqrWhymmjMPm8fPXzvp9fynb5GAxx8481vr42ryaDeIpPFqczMFM3UGg0Jo6yyq1rKzNF7WJlqUQNVADgBUY8/evDRg9lPv+S3+vp8wI3vfOfe2guNQvaACRAIkEoCVtVoAKHsFipISTBAIsmUQQkwQYRNb7xx/qufvfv0xsmXCwy+PgPc/t7dVV1ZRBczvKppnHlJUAJWM2mZhABIgpDMjMQIgoWUEUkQOfd69L17t//p46OzLxUYfH0GWN+c6rqkZQqAuTIiQaUyAUhgmcMFgWP1EExIJZUpGjLlDohGokef7v5Lx//Hg9h+GQt8RQY4PnLjxacA34B/ugPu3XtrNa1dcIuUssMJKkQJUMoKzctMAkBe7gMAECBJNEHK4QIgCb37we/bXzx4bIfrfnbRXypA+ioMcHNlr7+6cjxZA/g+6s+2hu98b1MnB4xgDguY0yNAKUPKAL229BEImBkJyYAR/UspgZBEkMqQoffDHxz85KP5xr3y+NNHpy9jgeu/Bd4q3zoq08qVIhApcZpaubWBOccSkmqzqi9hT0b0iLRScI46HrO7m1qWYnOLMk3F1YUwmAMyY0YEV+5H/uD9dx+uXzne3v/V47z6YbjWHbB6HcS/f6DIiKDTSMFmrPvjSEpJUaC5QM3dDGmmNA/vrUUERVGZkiRDZkpYmAIpBAghiGZIwei+8+Mfvvre+x/d++ard955fHHlZPEaDbC++cY/JCFltN3FXA+KETSLYmexc0ulgSQhohh3F6UgloDQYa01J0ETkcp09QQYIZAELYNiyB0IUaFiQs6qr9554yf34w/+ldf+4qM2X9EC13UEViv8jX+QkCAYMnqzg2nEu+6KszNOGYk09o7iTsbFaa8T4ERGpBRzE+BuGZkyM4VKRQ9M66lCat2LBaoTvUM9prU7UioH9vlf/2z9R99+/09+0XdXs8C17AAn/92/nyGnYAIJaM51JU2iQVMtW9CN/XzuWQ8KIN/wbJebIgg0SO5115EkDYhIShJdIgQhB1nkzpBZiRQVgIKOrd/40eH//Y/O//bhn73z9OJKjuBaDPAf/Wi1Lr0pATM4AKSXdQEJozJDVJpZnp94KV6MkPywPn3Uj3oKysgefmTb1jMJmhICETtPuUBk9HAzkRlpLoGkMpE0os3le5t/8ie7v3f7mz/52dOr3AbXYYD/8PcPNpOS0c2dg9UPWHEYxcwR81qhzs+OphQC5gZl6BHeIEECuT0hDza2VYAOo1JGKQUgQ8reZdCgDVNKQQASpABk+R3/x39a/9U//r1/8r8/nL/4JrgOA9zblFLoZQ6QMKNBKOagM6PJQJonLfv66Hy2akb13npvk+rKaUDG0dE2tuuDuutJGBECYMtHJLNHdqMrQmbKCJlkhDjipPS3/uU//ZOjP/y91zZ//snFF94EX9YA/p8VvO7TuqJLzCRJwuA0GqjWVCxF94Rh2mBbNytX2+0avK43OHCSUsbquJ2enE1rTynkgEmgACglKTMRBRFwI5ABAyDBIKVgqG+3/+lP79585fuftU+/LgMc/Kffj/TV5Ep5ZYbRjTQQABVtp8kBYPf59uBGWZfdelWL2rZpqpOPB0wiiY5yGA8v5klIgCMQ1Aj6wjHCwEDCMMIEmikAMyqTkFR/cPE//y+bW3l8dJ7z12CAN/+tafphBqfJ0mgE0gQaSAOUit5Zi1KcP/0oXzmcJpsnZs+GqRTnOL2iweRsyWO/6CmzlATChudXNDoSRPYuNwkZYinDT5AZckLJzR8/+YvVH9Qbty9C7as1wCtv3Th482+vbe5e14UCQDNQWp5qRijkbsrIePL5fDiRJekgrU5uXPyXAIAwl9KOD88vZmPPxOIbATA7CgEhEiOBzhQ5/hVS5sIqzDf/7sMf+w/unJ633H6x5OglDXDv+9+5e+vmeg2LTSluBAA6hSTG7s3UWH9mXJzg3s1NIdMBkoWkZBppHUlBZq4Qp8y0EsObmBZr9nRCQGZ1Q4SGmyeczAgVhwDl9rW/+z+8d/Mbr5zPga2+yF3wcgb49o/ePl4frGtllV366pGxMmEGZEoopDIjFbyx2ZRisuoSSYAazpuEFUiWkBSBKbe9OFJ0PotUM3MYOQqE6GFGQJIVRjR3B0CwnX33j//s3YObr52c7oriC+yBlzLA9/6N7xwQ1YgCKmhjJwqgJBtuPWGmcZiVtVSQ/Gd5MEAaG50gBSqTtOAqt1GAHPbBYAyQIkFBQWWMlyBRyBQJyKjA2eEPn/z0l9M0gRXef7MjeBkDfOffedvSnIruwwNfkheX3xkCRiwD0LLv4OQ4KIRJJAgqTUn5yIdoZhQkrqKlQxkgLQFKpHRpv0AOhiASzI7ewWxyAOF2fvSji0/sqKFW6/6VGOCb/97vlKRXQ3TQIMTyQCFJpgQgugSOR3S+pdPdAFhicW/LnwQgCiDNPDuRvupZjFCacGlcSuJY/9hUo5aeBT2sp1gqjHCb7/3B7pOnfUoCX+AuvLoB3vgPXp0MiYAYYU5Qghk1YAoSz7a6AtuzmMyKEzSN1YKAQBZB46ALNB8vq3hLs1Rq+ABeskIY258UIpEQuhmQDTSTrBT3jLd2f/nU1xHu9qKFvJwBePMf3qmpcYd1mcLoGAWNsSkl0cYulcTMOJ3drBQnQA2vJpISZAgbNCgkOpAIpVlGKeoJQuOmHNoIKkkOEyYAKDqLS7RSa/FSCc7Tt3Y/OT/kLr7I4q5qAPsHdyroNjyTxnYkoQSUKXgEaEyRSAmKJycw+lSIRC5nAMT4H2XLu0BK0auSQJ/dGJSgZXcoqYQZYzEJSWBEhUmY12lyQzKBtvrmycdYXWib9htvwivvgFsTYBRAuHHwXDAjMzMJjr0BkBSR2T57igorhQIuL/aR0pECqLFrkBkJI0lmwJgAkLh8Ox+xhSFSJMyH74SnkpSkNEnZZRMP3to+RnH2V+9ftwFwyIBkZoPLSY1cbux4msGYl05Oyt39D49umbmPZePSoY/YDQIx6O7MiISTloaD1bRkwiPfJ80AqMMkIWkh0YxQgkSKPmdnKmXurd66e3IiaDq+bgNs/uOjDBmH0yZy3Ic5Kp3L1R+OXOjfnPP41lpWbayfBoi/3gqD9E5J2RMGiI7gUWZXRCATBNJIcwMyoS6BgLoJNHFEVJ3pzESZajHLemNz4aZWv/ez38CQXc0Amz/6Xe+RhFLVihOelDItRjbgRLZcchxlBG/fZNdUiBEfJCnjuCEBQINHzNRSCMhhkt56ZA6HSpp7qU5kT5YYpSRIYVruICCUFOpqVaub7OB2t3J4cbb75i9fHA5eyQDltT+okUownbWsiouKSLcgkKIxU8gYqYsyku5dXmyEvynxGQ+r5YpfwodRBdWIJzJ6z1TSQHN6KbUUZkMyTSPAHD4keRlYpHlZTYUkiINX82kcvuWf8cnTFzrCKxlgeuv2zhIIFBvPWznCOiMyElAIym608aoQ2VHcRmgAOsTLpV96f43Xo+fywIdsIDJkBpsKWNarAnVLKrQkH+MeSiMlwKAs0+ROEFC9rfZweu31T59+8GLi+0oGqPdKQJLCMjNjCf/C3BDj1A/H3h1GwAwi4M4l9V/CvnGzjw2/hPIZu13LhBUzqPfee48gjV4qbVpP7KnoPTvsMoEABKRzuS1BczcqIdj69va02d31Bz99ki9yA1c7AjfMFP+sBQgoRGamRvlGMA/lEsJ5ZkHxIXhbXrtMGMbWH3+LebfddQnmdFfMvfcImZm7lVonp5R93mWkiSQBMwIYXADGxTxqT41wcn376ZPT+eCN1x+8UG59JQPYxpBLfKoRgTCBYuMpKiGNtFXjcqaZGc1snHCYtOzc8RcpkBE5X8ytSQlPmGX0SAA0M/c61coQs213kakczn+EEnBluo23U7QEBRqMPLxz9vDTO4evf/BCAcFVDLB5c2KGCMIAZYxFGUMYT9hkeenahFzKGhC4/JGD7se4+2hEZu9zm7ctYgl6okePRS1E97pesSeAdrHtSAnBpJFKXcYHGqEXso9EE1BavbF5er/g+Man/ZoMcPjtFSMujx+UUMKgkLmNfMDSJDNyuCYalGWxiUGZUpKXyQ0kRG9921obtyuUUI/Q4ArAUteTRxfUdhddzBFGUDRCtEEMpA03k5CRTlKpcnB8ctr88EZ5kabuKgbww5WWtY/AL5VUJIsNTcdIAbmUQJMSHQFLpA3vTwYwtuso+UZEn+fWe+SwV0/1BEYmSC91cgUYu+2uD9e5ZNPjX8ZNKMEpBWwcN6rLrGwsrN64c7h9QShwJQMcTEJhZhKWkeGwbLAlFRo6HsFGcAIpkUZPcrntCJKx3N8gE5kRbddaaFBHyozMJVwWvZTqiFCO9ROCwR3kqDuQhhzZYpqY45OZPTWBzCwHN+69cnrxfDd4FQOUo5oglONhZ9KAdDfl0Dzq0rkhL2+GcI57e6F/RVtOtzQK6fNubj2VmUwtwnmMggDM3RS9RdvNl/esWRkGGBybyxUBghgOF6B6z0KD4Xx+db59tNo9fwtcwQB+cOAjaPVheyLB6kZQozIxDu648Zf/JFPOcVFzUODKcWVltN22tTl6z8wcBuQSIZhZojiZarvWewoA6VP1cZaMy2M18xBJ0pxkZmSElepZps9/8fq9e0f2/A1wFQPc/eFkStcoTWFQeKwOiMtFMy5jUoaMlJSQBQzg0IUiQRFCIiL6btcyMzIzQkNTw8VA5gvdnH173odKimbT2qnQ8m7j/cxMIGC0oSShvKwmSzv45Cff/MHd2yt7vnDkCgawWrRoemiWKYjPQpyFCb308SSzAxm0tOXVJW9TEgCUrbVdyx7Dq+Wv34Qpcx8PWD12F/PgWN3MazFjRIpImQE0iqQ4om9IpC/k1HQ4XTycj+8eHl48lx28ggFYOUcqBTeJrXhxW6Seg+9N07MdPFZDA4BIIyjqktnKULZdn1tkdGT27LnwaIPr8eJIUIrW5jkGwQJzo8SpCRFKJ2DjOkhZcQqGYCmOyDn7tDmYUvX4zs1HF89d1VUMgK6IEccOIr4M0fdyKY5kX4vPo2ekFEGjDIIGdUYApObW5ugBmPWIHkFjJqA00FkKEnTL1lqMhMvczZCJHKnSkl4JokUCiHF+aF7gypyN7qvjw/PNkV/LLaDeCwdFIV/yUR/s7DPvj2U3ZkqW42KTY+zuhSwmYdpuoy3XZmq48aEjkS5rayChiJ4J0szcDCnWJfgwpMZlaEWkQchOpyWMMIqe2Bz9zuZsOlo/nx6+ig8oo/ivTKeLyrAYrn2UuBSgE6kUMkdAwIUe5pIGAyBTbTsjRWXP6BmZzozhALjUxQ1UXHYLLqGvKemRjBjMg1lYejGjmZu13sNtBxanFeOcB99862a7cVifnxJfwQD1yGEORkpIdTNABmJQwBi1IGCQwQLNk/BR9KB+zYBk73OIBLIFomdqEYJqud/NDSA6tARMI7NYQi6ESkktGbZooJkp6GuJilnV6auK1srdO3fs7qE/f1VXygaH04EyDMiIiKkahZEKjdglR2Q6isAj9Rnh68IGCplt1yBR0SPVuhJESMixkuHxLsunAE1K0pBj+8UOlSrPPGY6zaiegzaL7AFWJFsvt27fwN1b13ME2sWSdEcns9PmbV2vSqH7r0sXl5S9iMUuS55OXh4BtdYiA56tJbLHyGdE0Jy2JFvPam0jsqC5CQll876ziTbuTCVjkEJWRinKrUWiFqZFW906Xh3cvn38/GVewQD9QkT0aD0QBsBY1tNqPU3Jpa6pywrwEhBKy2MXncs5jDa3HilT9ADikuEULtlzLoR3gENJD9CLIwM0RCMhc4DI4Q0pRBYnUgYjqXJ0QMXFxe2b1abDw+3zi4RX2QFnURVz78olZoNtp9Vqva5lKlhWPIomI7WBxBH4cNx+UGbb7TJDZpm5MMdLLOHmBpE2suuEDZGcSC+VSpoxstGocfYzBXph9hhnxsA0EjZVxMXj7e2bhBeebq/DAP1srqAtjJebKXPubXuxXq/6VGwphVApLrqPJeYzcIlcFbvt3DNTxuw5lPIEQDP3Ec+StLEj2BbjkEZYhZERWiRToxjlxZG9qTKhdFewGPICHo8/1ys3K6CfP3r+qq5ggPnR2YqFtZ+nlakYlK3l3Nu8W68367roRABc1r4vMyMtjlDZ265FRiQNvWdKYFmIpTJuUyKZGCrZXHKoIBPFzGBFEcJSRgBsKkz1qJNL8FJ691Jte47V2YOTG0cbV/yv/+Mn12KA7WePjyezlFg3EzPAapHZ2m4OIIs/K/kTpoUlgAZvkZbI3uYemZkw6z20lJVlhPkoNy2smQAyRAFmfUY1LqkShkoKMsOoR0U0uHuCtbJ3sCq8zI8enh2iEPFf/uQFq7rKNdgvIGTMqusVdg2AT4p5VhLR16s6qqVcnv3IDBcKRykq2tx6G/p3tRikbspsZLdLNCVQRmipsQO0OO+lso7yifkQB2LxL9EjnYpEIfuuITgVv7h//+nu6alZxO/95On1GABY9Wxtp/U6d+GeESxwT7WMlHLyZ0kqhqBnzEUggFQidi0iY0jbuhYlkUjQn+lsDDR3ppb2KqTi4rRjOj6eyvpgXRYFgggV88k7C82dxlJN5aBu1v386cfvP2Xd/urJOvBfzP/d+bUYIJtRieIr3+qwqGdvacV6G6qNzKks3k6EUUiOQqoAy6UVBBQ4CqKggUNVsBwd0paojcY2SLCM+eSTs0S5eVDXG69TqcWNcBfQc1pq5m5GqWxo8fT8k/v3P9sevH7w6LNbk+M//+wfXYsB5kc7dRYPhK2mHgmPMKNCyh1ing5qKUYYU4PUe8YTCETvInKo5DTKBMyUm+gUmXkZRLnJrPehf4jdtsF8Nfk8n2wvysHB0boWs1qdTBbQFHInkpsp+u5ktzr98FFo++j1ko3RGy/Zoy9ngJMff/8b66FBOKqo6BGYyURhKHYxr7JOU/Hx2BPOJHOpCBEZPTMEDtnGuLSzw92IvKz2LLSzl75tMCpShG2ONtVLMc25Wm9W1Y1mBlEJGDIl9T5rXlu0FmY92Oby6MlFb27+9z/5q+swAE7+or+GxMhFKZlVdZBGRka6VOdVre7FiAwMrmiURITLnTGqxLmkyMWcVCKBsf8Huec6f8oqGlncA+vjWtaTeV1X4+UtO7hYOiVidE/4uppi/tXTeNpK//zjj//Werdt5Y2PnxcKXMkA83unbx3VKjrVt62uVweTwixhTEFzr6VNta54WfQ1ypctMCQ+GFnw0FFSXKHn8gSNtMG2Ovt2dxZTEcYEjaPN+rD4ZG7GzqXMAohOpZwSvLB4kZlQVpvpxi9/+iFK8slu3Xbnp89vpbpabfDg9mYzVZqD4btpxR1XPW30eSF7b76b6tTWk3E8lPEPUcrWIiJjkOqCl+Ig++O+ZlI0N9KIiO28Pc/VZj0SXhJc19VkZu5Qx8KOczRnpHozJEtKvlmX3UX6anP71k1vj3hYPnvn9ZLt8clzq2NXMYDd+N7f2BgdgBSHWTy6VUUaTUwaemTbldVuu67F7dcPH0D23nqLGPQ2SqFXjx4RXhbVjGVmtt12u2s42Nws292iGXcWIyKHUpSZmVadZkaDUTBnoZJWykxaYfi9Pzz48fmdsw8+PLyZu5Pz5xYGrmKA+sr3X7t0zcLKwFLAOjIZUualKXvErmynaVXLcvhHbJRD+Gg5rvpaHRFte7at5nQqM3pXtBZ+VKb1VK32hRoopOQRo2MIOfgiEjFYV7qN0RPRkJGubH26u66/8AfTObA7O3t+hfxKlaE7tyJa0gRh9G6myXxpe5PMS6pFRGtlWq/rVMx1WQkc8vccdU0rU8ntxa71QMupKDOHUGi1Ni9uVKbXJRYcAXKJ6G5JiO7FjSkwHDSOOBq5y1VLZVgx5OG35/tnXYiLs+upDKFskG4tfJGqq4U7VEaztylpBpU+N4WUfepTHenN8qUzOVpnzQvb9uS01800zX3UfchibmYL1YFkRYvBKQERxbKLKuZmpQAKFO9LzdEIZA9ARgZtKhnHb31eSvTd2en8TJj0pQzgBwBL27ZaR+07ZrE6LC5mudvgMdzIDgSy94ipOGzkNq4Uk0Z3M/Z2fnbBqaJ3dSwyCo7LbTQHj/JaLkRydpgQBKvDhiajFGZKRqWNTGpoFLOzWI/Nvdun/cHTOD1r7VqcYL3hAN12QiFgXKldYMqL1rvo7ioGwiGmEBnj6/tSGTWr1kaBS4o+tw7n+XbbQa+ORTYgkjSzke9APSRCppAttJnJXUqUqgBgBiAzl5KdaGa5nYN1unH79N1vvHq+69vn6uavdAQOCyNZ51kyA+UrzbO1zy/WG09FdnN3B2zoOdWeEeEQxjiIUgxSRkRvMmu7LUqxoTVfwpvFYYBMus9zSGBSGj0kUCp7htwQGYA5qN67rQyiZLWYsqV1O7r39LMHR4nnusCrssJESF7arGJwJsybsUadilLK6PSiPibDyAQYEe5GCCGNQSjKyJTgjp7rydFHd89IEjS0JYsd63S+65dieXMKRgMiYchQBAxGRYQWwS5hpSASijjudbU56Hx+bfSK2WCaJ7KU3olmVQKzr+6IyixGRbs4tWgBCKmyWaUR4cUNUERmDv2TpMxiaL3UJdzHEjgOOiFpRgPSKji3EIGkQarF3UY/TZoWWUl0GW1U34gMuntBz1U9eOOtuxfzCxpJr2KAOE+zcad3FUpOGKKbL91vZtbPL3qLUSro6p3KUpSGVEaXMiKThGRTNmV4YNQMMHhwLB69udEtYCvf7XZJSKEsHLLxpZYOQFCLhNsimDDlrtfixWt2rW69cVMnj58fB13JABcf/c69BLz27AGzqGSaOtyMngEYD3zbeu+RdNKZjcs13lMZo9a1kL6hHtEdJg6NEYChjDIqFYXuSJZaa+3RA8hEBW1YQACLeigjMBjZ5NANZi+rAtQadrg6ffTJ2TVphLYfvP16NFiZZD0ihQm0HmajfJVycrPOWITOKJMNliup3iOVmR7wMScue+RlU9RSa8UwwnLzASNpLizRdnNAqRCn4kVdUqaTCo3lAwLdwtwUIfVcr1vbfbbhli+YR3olJ7j74Nt3ZlJFRMserS4er8iG5F8pt0yYQVKpDkg9IGXPlBQh9IweAtSThsAzdT0NQFIBLGTxqqfTmL0fbM93InKXsVqZFfbRPw6lmYb6jl6teEGHe/bJiHJyur5TdE07YDr67P3bU6c8HGyRu9khU2b34YkzJBvNECSLD80gMzPGuYU60FsbBY/QaKYbSlcMmchlMU20omk1oxSL3nOq59suqmFhoDP6YFFwSSKUqZJumW4Ks7iIus3DV9v8gnkCV/IBH7/5y7dvx6h0UpnKoAkKGsHRIrr0/RMwGb3a5aAgLNKvjN5CidFAJfiz/WmM8ZKZIbP5yuVTGhLFs5TV2cUuqAZkFsKQg4xZCC96LYaKDBakOHe6/Mabdz54AR1wtWsw/Pzze5YwZyYxdwKmS1kjBZgyAcFIg5XVytEjM5UASCmi9wzgWcnYGD1Bs5H8A4SNBjpFW6kXV4rmcnebzi6CUEDp4/+GDdHY0kZPWsyBMaW0Vm3byndPrssJQtJsBrgpMtx3XeMq/nULWcZI2ells17XqrYc/iGAi7mPaigXNTl6i5TMtQSDpAlKglTvoyeEgEjzlXu5SKllZlm6FX0MFCLNjKGiiGAkjGY1Th7fvF8+/vjJ89XCV6sLKJCjfuEZYbYN9uSzwvio6UiEed0crqpbRIQkUVJmj7ZoSpaGqcw2CuCRMFMYh8y4DLlRBmL0DAcIOr36eVcMrdmQDiBgEDJNEWa9RUA0o9U6P2342em7T17QQXslA7SH6zbrcrAFKrUb4Rlw2QJBWII2rTebyc2QEZfV8kUEPmq6i2isKWxp/5CG9hopZhZTJmPpChsKAxO9Gi8al25yAmkwMAmEAqy57SFzH1HI+aOJ7372/tkL1nQlA8STO2fNOfyfZD7F7JcDfsZJZMDgZX10MLmAHAJ+SNFbH0MBYItSBsg0cy4l0MHsAEpkqhC5K+uySAe19Jzz0Gw7DhXpTlyOW5OS5poTLLWYZI72+LP12YP3Hl6XXB7Q2aOoS7M8mImiGL2fg6AGAJh7nSx7z5Dm0RQYGb0lzRaRDYa0Q/SlRjAiQHGZGTGU83m+rr4ESsuHsBbaLkKwpTCgSxUyAES36nUq2UW37YMn69OPXrj+qxqg/+p0QyiVUmYESiR91LlgEAUzL57bHZVdFmOYQKTSzIzpTo6bMS0E68NBjiIBtPR7LBOE4qyuq1HKJTaksR7Rd304vnEB8VkUSZa1sVaDwS0ef+4233/h+q/aODn/6sNblkDkcrdx6YjN1OhbMZLZx3iolC9+XTA30BRuNlxiGe0TymRqXOYSCDMNQkEwzCca5SI8qx3aCkNPBSiXbuzLZjzfrGofGhub/PGn7U6ev4ALuLoB4vHBT751E4uSD4RlXSbeGYhR6VVgGQAFJEw0mC9Fj2TBKJsvw3CyZDJyhIAJGgr66EIlgNha1MkNNC43BGCljGr0Mo1jqRQA8KkazEgrtto9fLRe3T+7VgOAh798uHLSxyZOXiqXfXAZGm0Ag8gbnR0iZHWIuanF5VGLbtLdgqmIlOCiuY/sZqR8zLn75G5e6xDKhNSThHpK5KIUJyQYYoZjcFIlH358Om3PrncHwF5//+mtTXWYllmnaQEOTXQuWjcNVSCGv19GYw4t97PxSJebhICD8LEHxjlwgmaKCEgd1szMV6vJaZIyMnpvEZf9UXbZmMXctvWmIEFzPnrvE/QnF+9drwH8zV89fqPATAlLEULBZc/c5bOAL6oogZRSVMtSRvhgyqFyBUZ3+Aj0BtMFtCabihFQbwwpwQiziFZ9oUlTsRuDNNxHrwRS9MqICG2SxVguPvrlbrU9+41DRK5ogN1//92H82iFHBO+IBQqJViKNtZM0ssYoUQwAsg5urlD7CQMI6NKDSWJMH5GQIqWZbMaA/k4BmpCgtLZwpjJMUWoJ41m7iakQTCvU1FEZAuv5nr4Ud6ZH79AG/NyBoB+ju3BUuwHRqVrCLdhCVfSqPRq5sXUA7AxLBAxanujd3w5IePmyxw9BkBPm9ar8wfbg9sbAALTRmCgREIJwmIpjXkxoxwRI5cqK0f2Tlannf3y9PWD914UA7+kAaCzh3cnw1BysQCZSI3JGNRoGfBqUPbi1SF0KzGkkyFx1D0u9UA55soCkGSglVXd3f9od6/SEzQtHVmI0XiHcY0YjaPYzpIx2khlZWLUOevGXJ9+VO48eTjbJ7/BBbzEFJnj+984KiBLZo9LzQ9H2xDpGcnqsmKDqiEgYyiNvBR8iM8CuKURchSRrbBM/QSvTwcbB2QQmM/0EENunoP9GD5GNlq0I1mGHm9SLbb6/J3T79inMz+79hkiwPffff/gZiGlyMFUcpwBUTTS4AwrbsxuMKiGqSJQnEDvQheXKSRYKkGjOwI0r3nBVw6rujLGlEC4RkUREuRj+BxHqMSRI6ZE9Hmi4C7mtP3px6++8vEHH+aLo8CXM8Cf33p3/bu3qkcH6GAXcnQCC1ACXgDHmHDnJrlghV1eFDa50rQM3+IYAAMpBDPCim91tMqmzDFOoGTURX3IHBySGd05OJhxdQwadFfg7hS5e++949+Z3/vw+QrhL2OA++e3fmrfu1sbkibSAqPvdQwyGHxZgZTmNI3wzck0R+/rElkwZNCZyermGaJANyN6Thvt5Og9RCvTxbxocEdSCGpQX4oxRTFFKyYiY8t1AWj+4BftdX386Ius/2VGaT394cmPUe9MIyT3wc8PCWAStnSIQbkUuciswBgoHeleRq0PyC6vhQLCCZkbWrOCSFE9YPQJuzSTgBw5FCFbTWOK5OixL1YAWEmoIUopPt+/uHt09uSLzZR8mWFqD14/+an9/q0iIWDJdGP2jEs6EFQOmsTGQItmhUYiVNRZluHDoqW7IZ7Nz0wlK9tooaG5VZ5ebMqYvjXCR4OVqRKgiynz6oDAooShSyj52f3Nm+tPn3z+lRng59Z6+u8fsFAKlgSZbMDlVCSTloudRoAz3BNElopUNAfgTMiMQFsNZbUihNE8lYTRS+H5YxyUhkVpRBjlhbTsMndPXzqXbUTZ9LIqpx88ffPg/OEnT74yA+AdHDY/+E4prrRcTv84qYkMYalxSgkU0Hu6wVBUs6SCgrloKqTjlIcSwOhJQ18GJ9HddPFod2sTS+sJCSPTTbAUJJ9SGLKMYSL3sl6d//KXxk8++sWDL7aWlxypedZ5sH5tolhGy06MTJVij4zBYI0gn7J106gTZIKu1RJFwUiW/jiqJXI+z9VEJSvntOLOdnayO74xigUggWeja1K1IFmsW6EPOhpmXqZ6/v7PTm49fPDBwy84VvZlh6ruzu7/GHcnW3RfGi28AGnZ4lIUA5jBbDV63QeN0VE1xmckAajnnMzopye+9hStymotzO3phW7esJYkuKQZMBgRlBVrIdDryCCT9FqKnf783c/58PzxF3SBX2Ks7q3D9+17dzcuwUcuBDplVjBK1wkzEx1LoYwA1ZbuCY0J3KCSr5Xa50xbeVHIq29zWmk+O+/T0QG2M8toT4Q5kzSaW3arCoFAGUPqYLVWnvzsHe7ar56vjr8+A2zuffxu/u5rxxQwfi5raFs8a7ZYytRljEoDxjwFsEdMHn2JiwVS5Q7mx33yzYHQ0kvtO5u4O93azYMaF3OWkSygVFfIvBQzRHcrWTvhI6F0qwVP3nnn6Lv/9Qs6hK7RAD+N7/78nz757rfursQw7zEG2ChDVkaon6EyKp4SskXQ1wKih5fhuGKMyM4gJSPd3eeLOMDpaR4c1Zx33YAgQCt1onrA3UerSbUQTZ10E+iej975+e1//dZ0pXW8/GTpn/8cE+9/8IO3jyZnWhs0mEbBIMMiFDPM3GKZr6ekMyLjmSJstL3Z+mbPhJlD1rbarM6exvHN0lvn2rMljGWq1dUtBgdr0xjaM2jnrBXm/bOffPjqv/nGX3zR0/9lDQDg5t/563c/fPsbb7++7h2xjFQww6jiKLOzGkG6kQ7r89Jen0kCGZEoBfO2g+a1Wo8+83A9X9iNY+ySBaWgbWFeqi+SSzMaltKok5J79DLp5IOfnv7ev3b7z/+rkyut4bkKyi8Ce/M/+ek7n9S3vvuDO6P8IURmjHpxtFlWV6VadmUtMe9aCm4U6L4I6k0x9NJp1dXnrrrSk4ujW76bk25O9G2YF3d3thaoxYsNPVV2QbXUXtbbD9+5v/pbP4o/+29PfxMDcI0GgN+e5/ad09X3fvDKelWZUs+YM2nGbHNLTnUq6GPk3txGxhOZGJPyaNxFcRu0afYWrOTuyfretAu1sDKh7VpaLe5ujAi5Wylmnm0MtTWV1cHj/+uvzt78m7/z8M//t6s9/y87Xj8eAPhle/O9p2+/cnR8vLZIYIoARCuwnqkMszR1s8JFBmCRovnSJrtGjimKSlRnZNjhOofMyp5NUki6WYkht4n0DBV6IVg25ZO//Gv+8Lv+53/18yv/+Nw1/MLEBT4Tjy6mg1t3bm0OcqtLtsIx5kaBKLWD9MGYgaRz6HzpcKUxwi2NZpkMq4Qr5cXYx7S9MZWDZr2nDLGDTU5Y+no1v/uXv7r5rZP/Jk5OvlAGfN0GAC7w8RvHTx6+P92598orhxFzjuI2PYBRPrUCjt/VTA2SwEaxq2wvJrc2D4FJyWShjKBBZrZ0WS7iOBqH4otm1VDcWPDZez99/OpbD/7PX73Ud7+mH1o6feez8+3m7Q9+vn7zm/eOplyoXIRSEQgzWhnFMXPBjMYUoKy5zcNyHhuXuk8ZXl1dSriMOcpEMh/ptA2deLrXCWnWLs4+/eB+3qk/+9kL+oNfhC/nBP95HL7R7n2mW2++8eqtjVNgKnpvu912Z8Wnqa5rQc9smaPnl0hU27aD8pSHjDjLm7a1ev7w4F5tgshomTmag2iFozNCCPlqw9OTJ589fPx0W1Zx8fBlf3nyOg0ATG8/Wm/t+N5rr9xaV/fMmOfd+emTc1nZrA9uHR9smGPGlDLgph4T55AO1z1i1wxY1fZpu3e7ZI/LOaNDTOsFIFnM0HOqevrhhw/PZpukdv9FGpAX43oNAPCN7dQ1Hd88WFXNG0W23W7blLJycPv45r2blaJxtNATfYuVztvmZm2tK3dzXRU9eVrvHJdskRmCiDEZx8cv0jrhE08++uCjk3prmuPs0/abK2DP/8LXuPgFr+e2pRW3fnGLcAl0aj1diPXG3Xt3NrUYSzHSEH3braj7wdR3W3hGBdQvLrQ5WiGj56KYHdMT4QaybNbt/s/ePy8Hd1Znn3wUj38z+f18fAUG+P/Gm69p+vwU0+bm7RubwMHR5HW9drU5reaWk3adXsx67/Dd01052FTGUhoTJCsEIVsf2ufvvfPx7uBObQ+e8pMv91vkX5sBgDf/5tnnD3br3epwjXp04CyHN24cHRQCcXZRVyk3V/bespZ+etLq0UEBMwAQpBckfL3x0/f++v6Mx9fz08tfowEAAPaHF+fbbT84rJSV9ebo7p2jGyvMpzyyWTJF9Oyok+2enGpzOJXx+3MGsfi0qn7y87/6eLfZfPLh9Xyhr9sAC/7wzZNHpxGsWh8ev/rmvdv9CdeRQwSvEKxM3J3Otl7X0YoBTpsJF598+IsPTo4fveyl9//Gb8kA//aTfwwA9RvnSW7uvvn9N3tbKVuECAwl6HqliwtN1cAyrVfU7tFH7733YC4vkv5eGb8lA9jlkDQAwM2je9/+1qvHiN66mUFtDghW3ErxaqT6+aMH93/14OnuBfNRXwq/JQP886Btbt997RuvHG+cZoB7thDAUtFb312cPHrw+dPTpyf5wg64l/vsa36/lwTX64Ojg+Ojw1WxuU03bx0UGObtyZOnZ9vtbnt+dt7yJX5U9wt88lfwni8DWi3dvbzijIdx56iuK/rc2m7b2nmk8oUj4r/MB381b/sSGL87sgIwZ/Xxy8ID8RWtfY899thjjz322GOPPfbYY4899thjjz322GOPPfbYY4899thjjz322GOPPfbYY4899thjjz322GOPPfbYY4899thjjz322GOPPf5Fwv8DbXHA9CJRFGsAAAAASUVORK5CYII=;direction=north;flipH=0;flipV=1;rotation=0;shadow=0;movable=1;resizable=1;rotatable=1;deletable=1;editable=1;locked=0;connectable=1;" vertex="1" parent="9NufvOx4gk8zNC-zm_X0-5">
          <mxGeometry x="340" y="60" width="240" height="240" as="geometry" />
        </mxCell>
        <mxCell id="9NufvOx4gk8zNC-zm_X0-4" value="" style="shape=image;verticalLabelPosition=bottom;labelBackgroundColor=default;verticalAlign=top;aspect=fixed;imageAspect=0;image=data:image/png,iVBORw0KGgoAAAANSUhEUgAAAQAAAAEACAAAAAB5Gfe6AAAu90lEQVR4nO29W6+sSZIltJaZ+xcR+3Luea+urEtXV1X3TPVooJvLIM2gASQEj2iEEBrEG6/8Dl555gfwgnjgAZDQNKKhNc1At2C6uiqrMiszKytPZp6T57JvEZ+72eLBv31qRnBO5T65MwuNYuU9pIwIt8/d3GzZMgtgjz322GOPPfbYY4899thjjz322GOPPfbYY4899thjjz322GOPPfbYY4899thjjz322GOPPfbYY4899thjjz322GOPPfbY418Q8Lf9BX6NskaeA8duRlIZvYeIpq/0U///YIDDzapQmo6hR8Ir0+TFqb49Pz3fRV5IPb+6D//tG+DO6huv31ybMmGmDvNibqbs27OnT0/Oe/aTOVL4aqzw2zSArwpK+aO7tw6KEiShTBlIAoHiarvz09Pz3fnZ2fncZknXfxx+WwagWzn+1jFu3ZkqU4oEazFIBEj0bsXMvKDtol88efT46elF63Nc9xcp1/2GXwhmm5u37969gafWaC4YkL1Pk2UAcMvGiggk3cu6OHL7+NNPPn26e3zdm+C3sAMI3r536/aNTXGXGemZUPYInxyRsGIRtQRplIwAympl/fSDn3x8ESfX6wt+Cwa4c/vW7ZtH62JWnJmxA0TP6IlSTV3FLVDQkWlGKw4kjb6pD/76x4/05FqPwddvgO+/dvtwPVWaecnIRKRlkooIL4ZIKxaoJiozI7xWoxXNOD7sH/z4l0/xZHd9X+fr9gH2d+4dTl6KG0mxZAYEU8AMghKCRDYU0VjVKYUM8im2sXr77ofvf1Z2p9dmgq95B6z+3qulmtdiEEBKih5miJ5GJU0irUQvJUEYesisFDcLOGir/vTzR0+ffPDZNX2jr9UARz+6+SbrVNyYEYIRUEaKZPROlwCC7ggWiDREBFhqrWhymmjMPm8fPXzvp9fynb5GAxx8481vr42ryaDeIpPFqczMFM3UGg0Jo6yyq1rKzNF7WJlqUQNVADgBUY8/evDRg9lPv+S3+vp8wI3vfOfe2guNQvaACRAIkEoCVtVoAKHsFipISTBAIsmUQQkwQYRNb7xx/qufvfv0xsmXCwy+PgPc/t7dVV1ZRBczvKppnHlJUAJWM2mZhABIgpDMjMQIgoWUEUkQOfd69L17t//p46OzLxUYfH0GWN+c6rqkZQqAuTIiQaUyAUhgmcMFgWP1EExIJZUpGjLlDohGokef7v5Lx//Hg9h+GQt8RQY4PnLjxacA34B/ugPu3XtrNa1dcIuUssMJKkQJUMoKzctMAkBe7gMAECBJNEHK4QIgCb37we/bXzx4bIfrfnbRXypA+ioMcHNlr7+6cjxZA/g+6s+2hu98b1MnB4xgDguY0yNAKUPKAL229BEImBkJyYAR/UspgZBEkMqQoffDHxz85KP5xr3y+NNHpy9jgeu/Bd4q3zoq08qVIhApcZpaubWBOccSkmqzqi9hT0b0iLRScI46HrO7m1qWYnOLMk3F1YUwmAMyY0YEV+5H/uD9dx+uXzne3v/V47z6YbjWHbB6HcS/f6DIiKDTSMFmrPvjSEpJUaC5QM3dDGmmNA/vrUUERVGZkiRDZkpYmAIpBAghiGZIwei+8+Mfvvre+x/d++ard955fHHlZPEaDbC++cY/JCFltN3FXA+KETSLYmexc0ulgSQhohh3F6UgloDQYa01J0ETkcp09QQYIZAELYNiyB0IUaFiQs6qr9554yf34w/+ldf+4qM2X9EC13UEViv8jX+QkCAYMnqzg2nEu+6KszNOGYk09o7iTsbFaa8T4ERGpBRzE+BuGZkyM4VKRQ9M66lCat2LBaoTvUM9prU7UioH9vlf/2z9R99+/09+0XdXs8C17AAn/92/nyGnYAIJaM51JU2iQVMtW9CN/XzuWQ8KIN/wbJebIgg0SO5115EkDYhIShJdIgQhB1nkzpBZiRQVgIKOrd/40eH//Y/O//bhn73z9OJKjuBaDPAf/Wi1Lr0pATM4AKSXdQEJozJDVJpZnp94KV6MkPywPn3Uj3oKysgefmTb1jMJmhICETtPuUBk9HAzkRlpLoGkMpE0os3le5t/8ie7v3f7mz/52dOr3AbXYYD/8PcPNpOS0c2dg9UPWHEYxcwR81qhzs+OphQC5gZl6BHeIEECuT0hDza2VYAOo1JGKQUgQ8reZdCgDVNKQQASpABk+R3/x39a/9U//r1/8r8/nL/4JrgOA9zblFLoZQ6QMKNBKOagM6PJQJonLfv66Hy2akb13npvk+rKaUDG0dE2tuuDuutJGBECYMtHJLNHdqMrQmbKCJlkhDjipPS3/uU//ZOjP/y91zZ//snFF94EX9YA/p8VvO7TuqJLzCRJwuA0GqjWVCxF94Rh2mBbNytX2+0avK43OHCSUsbquJ2enE1rTynkgEmgACglKTMRBRFwI5ABAyDBIKVgqG+3/+lP79585fuftU+/LgMc/Kffj/TV5Ep5ZYbRjTQQABVtp8kBYPf59uBGWZfdelWL2rZpqpOPB0wiiY5yGA8v5klIgCMQ1Aj6wjHCwEDCMMIEmikAMyqTkFR/cPE//y+bW3l8dJ7z12CAN/+tafphBqfJ0mgE0gQaSAOUit5Zi1KcP/0oXzmcJpsnZs+GqRTnOL2iweRsyWO/6CmzlATChudXNDoSRPYuNwkZYinDT5AZckLJzR8/+YvVH9Qbty9C7as1wCtv3Th482+vbe5e14UCQDNQWp5qRijkbsrIePL5fDiRJekgrU5uXPyXAIAwl9KOD88vZmPPxOIbATA7CgEhEiOBzhQ5/hVS5sIqzDf/7sMf+w/unJ633H6x5OglDXDv+9+5e+vmeg2LTSluBAA6hSTG7s3UWH9mXJzg3s1NIdMBkoWkZBppHUlBZq4Qp8y0EsObmBZr9nRCQGZ1Q4SGmyeczAgVhwDl9rW/+z+8d/Mbr5zPga2+yF3wcgb49o/ePl4frGtllV366pGxMmEGZEoopDIjFbyx2ZRisuoSSYAazpuEFUiWkBSBKbe9OFJ0PotUM3MYOQqE6GFGQJIVRjR3B0CwnX33j//s3YObr52c7oriC+yBlzLA9/6N7xwQ1YgCKmhjJwqgJBtuPWGmcZiVtVSQ/Gd5MEAaG50gBSqTtOAqt1GAHPbBYAyQIkFBQWWMlyBRyBQJyKjA2eEPn/z0l9M0gRXef7MjeBkDfOffedvSnIruwwNfkheX3xkCRiwD0LLv4OQ4KIRJJAgqTUn5yIdoZhQkrqKlQxkgLQFKpHRpv0AOhiASzI7ewWxyAOF2fvSji0/sqKFW6/6VGOCb/97vlKRXQ3TQIMTyQCFJpgQgugSOR3S+pdPdAFhicW/LnwQgCiDNPDuRvupZjFCacGlcSuJY/9hUo5aeBT2sp1gqjHCb7/3B7pOnfUoCX+AuvLoB3vgPXp0MiYAYYU5Qghk1YAoSz7a6AtuzmMyKEzSN1YKAQBZB46ALNB8vq3hLs1Rq+ABeskIY258UIpEQuhmQDTSTrBT3jLd2f/nU1xHu9qKFvJwBePMf3qmpcYd1mcLoGAWNsSkl0cYulcTMOJ3drBQnQA2vJpISZAgbNCgkOpAIpVlGKeoJQuOmHNoIKkkOEyYAKDqLS7RSa/FSCc7Tt3Y/OT/kLr7I4q5qAPsHdyroNjyTxnYkoQSUKXgEaEyRSAmKJycw+lSIRC5nAMT4H2XLu0BK0auSQJ/dGJSgZXcoqYQZYzEJSWBEhUmY12lyQzKBtvrmycdYXWib9htvwivvgFsTYBRAuHHwXDAjMzMJjr0BkBSR2T57igorhQIuL/aR0pECqLFrkBkJI0lmwJgAkLh8Ox+xhSFSJMyH74SnkpSkNEnZZRMP3to+RnH2V+9ftwFwyIBkZoPLSY1cbux4msGYl05Oyt39D49umbmPZePSoY/YDQIx6O7MiISTloaD1bRkwiPfJ80AqMMkIWkh0YxQgkSKPmdnKmXurd66e3IiaDq+bgNs/uOjDBmH0yZy3Ic5Kp3L1R+OXOjfnPP41lpWbayfBoi/3gqD9E5J2RMGiI7gUWZXRCATBNJIcwMyoS6BgLoJNHFEVJ3pzESZajHLemNz4aZWv/ez38CQXc0Amz/6Xe+RhFLVihOelDItRjbgRLZcchxlBG/fZNdUiBEfJCnjuCEBQINHzNRSCMhhkt56ZA6HSpp7qU5kT5YYpSRIYVruICCUFOpqVaub7OB2t3J4cbb75i9fHA5eyQDltT+okUownbWsiouKSLcgkKIxU8gYqYsyku5dXmyEvynxGQ+r5YpfwodRBdWIJzJ6z1TSQHN6KbUUZkMyTSPAHD4keRlYpHlZTYUkiINX82kcvuWf8cnTFzrCKxlgeuv2zhIIFBvPWznCOiMyElAIym608aoQ2VHcRmgAOsTLpV96f43Xo+fywIdsIDJkBpsKWNarAnVLKrQkH+MeSiMlwKAs0+ROEFC9rfZweu31T59+8GLi+0oGqPdKQJLCMjNjCf/C3BDj1A/H3h1GwAwi4M4l9V/CvnGzjw2/hPIZu13LhBUzqPfee48gjV4qbVpP7KnoPTvsMoEABKRzuS1BczcqIdj69va02d31Bz99ki9yA1c7AjfMFP+sBQgoRGamRvlGMA/lEsJ5ZkHxIXhbXrtMGMbWH3+LebfddQnmdFfMvfcImZm7lVonp5R93mWkiSQBMwIYXADGxTxqT41wcn376ZPT+eCN1x+8UG59JQPYxpBLfKoRgTCBYuMpKiGNtFXjcqaZGc1snHCYtOzc8RcpkBE5X8ytSQlPmGX0SAA0M/c61coQs213kakczn+EEnBluo23U7QEBRqMPLxz9vDTO4evf/BCAcFVDLB5c2KGCMIAZYxFGUMYT9hkeenahFzKGhC4/JGD7se4+2hEZu9zm7ctYgl6okePRS1E97pesSeAdrHtSAnBpJFKXcYHGqEXso9EE1BavbF5er/g+Man/ZoMcPjtFSMujx+UUMKgkLmNfMDSJDNyuCYalGWxiUGZUpKXyQ0kRG9921obtyuUUI/Q4ArAUteTRxfUdhddzBFGUDRCtEEMpA03k5CRTlKpcnB8ctr88EZ5kabuKgbww5WWtY/AL5VUJIsNTcdIAbmUQJMSHQFLpA3vTwYwtuso+UZEn+fWe+SwV0/1BEYmSC91cgUYu+2uD9e5ZNPjX8ZNKMEpBWwcN6rLrGwsrN64c7h9QShwJQMcTEJhZhKWkeGwbLAlFRo6HsFGcAIpkUZPcrntCJKx3N8gE5kRbddaaFBHyozMJVwWvZTqiFCO9ROCwR3kqDuQhhzZYpqY45OZPTWBzCwHN+69cnrxfDd4FQOUo5oglONhZ9KAdDfl0Dzq0rkhL2+GcI57e6F/RVtOtzQK6fNubj2VmUwtwnmMggDM3RS9RdvNl/esWRkGGBybyxUBghgOF6B6z0KD4Xx+db59tNo9fwtcwQB+cOAjaPVheyLB6kZQozIxDu648Zf/JFPOcVFzUODKcWVltN22tTl6z8wcBuQSIZhZojiZarvWewoA6VP1cZaMy2M18xBJ0pxkZmSElepZps9/8fq9e0f2/A1wFQPc/eFkStcoTWFQeKwOiMtFMy5jUoaMlJSQBQzg0IUiQRFCIiL6btcyMzIzQkNTw8VA5gvdnH173odKimbT2qnQ8m7j/cxMIGC0oSShvKwmSzv45Cff/MHd2yt7vnDkCgawWrRoemiWKYjPQpyFCb308SSzAxm0tOXVJW9TEgCUrbVdyx7Dq+Wv34Qpcx8PWD12F/PgWN3MazFjRIpImQE0iqQ4om9IpC/k1HQ4XTycj+8eHl48lx28ggFYOUcqBTeJrXhxW6Seg+9N07MdPFZDA4BIIyjqktnKULZdn1tkdGT27LnwaIPr8eJIUIrW5jkGwQJzo8SpCRFKJ2DjOkhZcQqGYCmOyDn7tDmYUvX4zs1HF89d1VUMgK6IEccOIr4M0fdyKY5kX4vPo2ekFEGjDIIGdUYApObW5ugBmPWIHkFjJqA00FkKEnTL1lqMhMvczZCJHKnSkl4JokUCiHF+aF7gypyN7qvjw/PNkV/LLaDeCwdFIV/yUR/s7DPvj2U3ZkqW42KTY+zuhSwmYdpuoy3XZmq48aEjkS5rayChiJ4J0szcDCnWJfgwpMZlaEWkQchOpyWMMIqe2Bz9zuZsOlo/nx6+ig8oo/ivTKeLyrAYrn2UuBSgE6kUMkdAwIUe5pIGAyBTbTsjRWXP6BmZzozhALjUxQ1UXHYLLqGvKemRjBjMg1lYejGjmZu13sNtBxanFeOcB99862a7cVifnxJfwQD1yGEORkpIdTNABmJQwBi1IGCQwQLNk/BR9KB+zYBk73OIBLIFomdqEYJqud/NDSA6tARMI7NYQi6ESkktGbZooJkp6GuJilnV6auK1srdO3fs7qE/f1VXygaH04EyDMiIiKkahZEKjdglR2Q6isAj9Rnh68IGCplt1yBR0SPVuhJESMixkuHxLsunAE1K0pBj+8UOlSrPPGY6zaiegzaL7AFWJFsvt27fwN1b13ME2sWSdEcns9PmbV2vSqH7r0sXl5S9iMUuS55OXh4BtdYiA56tJbLHyGdE0Jy2JFvPam0jsqC5CQll876ziTbuTCVjkEJWRinKrUWiFqZFW906Xh3cvn38/GVewQD9QkT0aD0QBsBY1tNqPU3Jpa6pywrwEhBKy2MXncs5jDa3HilT9ADikuEULtlzLoR3gENJD9CLIwM0RCMhc4DI4Q0pRBYnUgYjqXJ0QMXFxe2b1abDw+3zi4RX2QFnURVz78olZoNtp9Vqva5lKlhWPIomI7WBxBH4cNx+UGbb7TJDZpm5MMdLLOHmBpE2suuEDZGcSC+VSpoxstGocfYzBXph9hhnxsA0EjZVxMXj7e2bhBeebq/DAP1srqAtjJebKXPubXuxXq/6VGwphVApLrqPJeYzcIlcFbvt3DNTxuw5lPIEQDP3Ec+StLEj2BbjkEZYhZERWiRToxjlxZG9qTKhdFewGPICHo8/1ys3K6CfP3r+qq5ggPnR2YqFtZ+nlakYlK3l3Nu8W68367roRABc1r4vMyMtjlDZ265FRiQNvWdKYFmIpTJuUyKZGCrZXHKoIBPFzGBFEcJSRgBsKkz1qJNL8FJ691Jte47V2YOTG0cbV/yv/+Mn12KA7WePjyezlFg3EzPAapHZ2m4OIIs/K/kTpoUlgAZvkZbI3uYemZkw6z20lJVlhPkoNy2smQAyRAFmfUY1LqkShkoKMsOoR0U0uHuCtbJ3sCq8zI8enh2iEPFf/uQFq7rKNdgvIGTMqusVdg2AT4p5VhLR16s6qqVcnv3IDBcKRykq2tx6G/p3tRikbspsZLdLNCVQRmipsQO0OO+lso7yifkQB2LxL9EjnYpEIfuuITgVv7h//+nu6alZxO/95On1GABY9Wxtp/U6d+GeESxwT7WMlHLyZ0kqhqBnzEUggFQidi0iY0jbuhYlkUjQn+lsDDR3ppb2KqTi4rRjOj6eyvpgXRYFgggV88k7C82dxlJN5aBu1v386cfvP2Xd/urJOvBfzP/d+bUYIJtRieIr3+qwqGdvacV6G6qNzKks3k6EUUiOQqoAy6UVBBQ4CqKggUNVsBwd0paojcY2SLCM+eSTs0S5eVDXG69TqcWNcBfQc1pq5m5GqWxo8fT8k/v3P9sevH7w6LNbk+M//+wfXYsB5kc7dRYPhK2mHgmPMKNCyh1ing5qKUYYU4PUe8YTCETvInKo5DTKBMyUm+gUmXkZRLnJrPehf4jdtsF8Nfk8n2wvysHB0boWs1qdTBbQFHInkpsp+u5ktzr98FFo++j1ko3RGy/Zoy9ngJMff/8b66FBOKqo6BGYyURhKHYxr7JOU/Hx2BPOJHOpCBEZPTMEDtnGuLSzw92IvKz2LLSzl75tMCpShG2ONtVLMc25Wm9W1Y1mBlEJGDIl9T5rXlu0FmY92Oby6MlFb27+9z/5q+swAE7+or+GxMhFKZlVdZBGRka6VOdVre7FiAwMrmiURITLnTGqxLmkyMWcVCKBsf8Huec6f8oqGlncA+vjWtaTeV1X4+UtO7hYOiVidE/4uppi/tXTeNpK//zjj//Werdt5Y2PnxcKXMkA83unbx3VKjrVt62uVweTwixhTEFzr6VNta54WfQ1ypctMCQ+GFnw0FFSXKHn8gSNtMG2Ovt2dxZTEcYEjaPN+rD4ZG7GzqXMAohOpZwSvLB4kZlQVpvpxi9/+iFK8slu3Xbnp89vpbpabfDg9mYzVZqD4btpxR1XPW30eSF7b76b6tTWk3E8lPEPUcrWIiJjkOqCl+Ig++O+ZlI0N9KIiO28Pc/VZj0SXhJc19VkZu5Qx8KOczRnpHozJEtKvlmX3UX6anP71k1vj3hYPnvn9ZLt8clzq2NXMYDd+N7f2BgdgBSHWTy6VUUaTUwaemTbldVuu67F7dcPH0D23nqLGPQ2SqFXjx4RXhbVjGVmtt12u2s42Nws292iGXcWIyKHUpSZmVadZkaDUTBnoZJWykxaYfi9Pzz48fmdsw8+PLyZu5Pz5xYGrmKA+sr3X7t0zcLKwFLAOjIZUualKXvErmynaVXLcvhHbJRD+Gg5rvpaHRFte7at5nQqM3pXtBZ+VKb1VK32hRoopOQRo2MIOfgiEjFYV7qN0RPRkJGubH26u66/8AfTObA7O3t+hfxKlaE7tyJa0gRh9G6myXxpe5PMS6pFRGtlWq/rVMx1WQkc8vccdU0rU8ntxa71QMupKDOHUGi1Ni9uVKbXJRYcAXKJ6G5JiO7FjSkwHDSOOBq5y1VLZVgx5OG35/tnXYiLs+upDKFskG4tfJGqq4U7VEaztylpBpU+N4WUfepTHenN8qUzOVpnzQvb9uS01800zX3UfchibmYL1YFkRYvBKQERxbKLKuZmpQAKFO9LzdEIZA9ARgZtKhnHb31eSvTd2en8TJj0pQzgBwBL27ZaR+07ZrE6LC5mudvgMdzIDgSy94ipOGzkNq4Uk0Z3M/Z2fnbBqaJ3dSwyCo7LbTQHj/JaLkRydpgQBKvDhiajFGZKRqWNTGpoFLOzWI/Nvdun/cHTOD1r7VqcYL3hAN12QiFgXKldYMqL1rvo7ioGwiGmEBnj6/tSGTWr1kaBS4o+tw7n+XbbQa+ORTYgkjSzke9APSRCppAttJnJXUqUqgBgBiAzl5KdaGa5nYN1unH79N1vvHq+69vn6uavdAQOCyNZ51kyA+UrzbO1zy/WG09FdnN3B2zoOdWeEeEQxjiIUgxSRkRvMmu7LUqxoTVfwpvFYYBMus9zSGBSGj0kUCp7htwQGYA5qN67rQyiZLWYsqV1O7r39LMHR4nnusCrssJESF7arGJwJsybsUadilLK6PSiPibDyAQYEe5GCCGNQSjKyJTgjp7rydFHd89IEjS0JYsd63S+65dieXMKRgMiYchQBAxGRYQWwS5hpSASijjudbU56Hx+bfSK2WCaJ7KU3olmVQKzr+6IyixGRbs4tWgBCKmyWaUR4cUNUERmDv2TpMxiaL3UJdzHEjgOOiFpRgPSKji3EIGkQarF3UY/TZoWWUl0GW1U34gMuntBz1U9eOOtuxfzCxpJr2KAOE+zcad3FUpOGKKbL91vZtbPL3qLUSro6p3KUpSGVEaXMiKThGRTNmV4YNQMMHhwLB69udEtYCvf7XZJSKEsHLLxpZYOQFCLhNsimDDlrtfixWt2rW69cVMnj58fB13JABcf/c69BLz27AGzqGSaOtyMngEYD3zbeu+RdNKZjcs13lMZo9a1kL6hHtEdJg6NEYChjDIqFYXuSJZaa+3RA8hEBW1YQACLeigjMBjZ5NANZi+rAtQadrg6ffTJ2TVphLYfvP16NFiZZD0ihQm0HmajfJVycrPOWITOKJMNliup3iOVmR7wMScue+RlU9RSa8UwwnLzASNpLizRdnNAqRCn4kVdUqaTCo3lAwLdwtwUIfVcr1vbfbbhli+YR3olJ7j74Nt3ZlJFRMserS4er8iG5F8pt0yYQVKpDkg9IGXPlBQh9IweAtSThsAzdT0NQFIBLGTxqqfTmL0fbM93InKXsVqZFfbRPw6lmYb6jl6teEGHe/bJiHJyur5TdE07YDr67P3bU6c8HGyRu9khU2b34YkzJBvNECSLD80gMzPGuYU60FsbBY/QaKYbSlcMmchlMU20omk1oxSL3nOq59suqmFhoDP6YFFwSSKUqZJumW4Ks7iIus3DV9v8gnkCV/IBH7/5y7dvx6h0UpnKoAkKGsHRIrr0/RMwGb3a5aAgLNKvjN5CidFAJfiz/WmM8ZKZIbP5yuVTGhLFs5TV2cUuqAZkFsKQg4xZCC96LYaKDBakOHe6/Mabdz54AR1wtWsw/Pzze5YwZyYxdwKmS1kjBZgyAcFIg5XVytEjM5UASCmi9wzgWcnYGD1Bs5H8A4SNBjpFW6kXV4rmcnebzi6CUEDp4/+GDdHY0kZPWsyBMaW0Vm3byndPrssJQtJsBrgpMtx3XeMq/nULWcZI2ells17XqrYc/iGAi7mPaigXNTl6i5TMtQSDpAlKglTvoyeEgEjzlXu5SKllZlm6FX0MFCLNjKGiiGAkjGY1Th7fvF8+/vjJ89XCV6sLKJCjfuEZYbYN9uSzwvio6UiEed0crqpbRIQkUVJmj7ZoSpaGqcw2CuCRMFMYh8y4DLlRBmL0DAcIOr36eVcMrdmQDiBgEDJNEWa9RUA0o9U6P2342em7T17QQXslA7SH6zbrcrAFKrUb4Rlw2QJBWII2rTebyc2QEZfV8kUEPmq6i2isKWxp/5CG9hopZhZTJmPpChsKAxO9Gi8al25yAmkwMAmEAqy57SFzH1HI+aOJ7372/tkL1nQlA8STO2fNOfyfZD7F7JcDfsZJZMDgZX10MLmAHAJ+SNFbH0MBYItSBsg0cy4l0MHsAEpkqhC5K+uySAe19Jzz0Gw7DhXpTlyOW5OS5poTLLWYZI72+LP12YP3Hl6XXB7Q2aOoS7M8mImiGL2fg6AGAJh7nSx7z5Dm0RQYGb0lzRaRDYa0Q/SlRjAiQHGZGTGU83m+rr4ESsuHsBbaLkKwpTCgSxUyAES36nUq2UW37YMn69OPXrj+qxqg/+p0QyiVUmYESiR91LlgEAUzL57bHZVdFmOYQKTSzIzpTo6bMS0E68NBjiIBtPR7LBOE4qyuq1HKJTaksR7Rd304vnEB8VkUSZa1sVaDwS0ef+4233/h+q/aODn/6sNblkDkcrdx6YjN1OhbMZLZx3iolC9+XTA30BRuNlxiGe0TymRqXOYSCDMNQkEwzCca5SI8qx3aCkNPBSiXbuzLZjzfrGofGhub/PGn7U6ev4ALuLoB4vHBT751E4uSD4RlXSbeGYhR6VVgGQAFJEw0mC9Fj2TBKJsvw3CyZDJyhIAJGgr66EIlgNha1MkNNC43BGCljGr0Mo1jqRQA8KkazEgrtto9fLRe3T+7VgOAh798uHLSxyZOXiqXfXAZGm0Ag8gbnR0iZHWIuanF5VGLbtLdgqmIlOCiuY/sZqR8zLn75G5e6xDKhNSThHpK5KIUJyQYYoZjcFIlH358Om3PrncHwF5//+mtTXWYllmnaQEOTXQuWjcNVSCGv19GYw4t97PxSJebhICD8LEHxjlwgmaKCEgd1szMV6vJaZIyMnpvEZf9UXbZmMXctvWmIEFzPnrvE/QnF+9drwH8zV89fqPATAlLEULBZc/c5bOAL6oogZRSVMtSRvhgyqFyBUZ3+Aj0BtMFtCabihFQbwwpwQiziFZ9oUlTsRuDNNxHrwRS9MqICG2SxVguPvrlbrU9+41DRK5ogN1//92H82iFHBO+IBQqJViKNtZM0ssYoUQwAsg5urlD7CQMI6NKDSWJMH5GQIqWZbMaA/k4BmpCgtLZwpjJMUWoJ41m7iakQTCvU1FEZAuv5nr4Ud6ZH79AG/NyBoB+ju3BUuwHRqVrCLdhCVfSqPRq5sXUA7AxLBAxanujd3w5IePmyxw9BkBPm9ar8wfbg9sbAALTRmCgREIJwmIpjXkxoxwRI5cqK0f2Tlannf3y9PWD914UA7+kAaCzh3cnw1BysQCZSI3JGNRoGfBqUPbi1SF0KzGkkyFx1D0u9UA55soCkGSglVXd3f9od6/SEzQtHVmI0XiHcY0YjaPYzpIx2khlZWLUOevGXJ9+VO48eTjbJ7/BBbzEFJnj+984KiBLZo9LzQ9H2xDpGcnqsmKDqiEgYyiNvBR8iM8CuKURchSRrbBM/QSvTwcbB2QQmM/0EENunoP9GD5GNlq0I1mGHm9SLbb6/J3T79inMz+79hkiwPffff/gZiGlyMFUcpwBUTTS4AwrbsxuMKiGqSJQnEDvQheXKSRYKkGjOwI0r3nBVw6rujLGlEC4RkUREuRj+BxHqMSRI6ZE9Hmi4C7mtP3px6++8vEHH+aLo8CXM8Cf33p3/bu3qkcH6GAXcnQCC1ACXgDHmHDnJrlghV1eFDa50rQM3+IYAAMpBDPCim91tMqmzDFOoGTURX3IHBySGd05OJhxdQwadFfg7hS5e++949+Z3/vw+QrhL2OA++e3fmrfu1sbkibSAqPvdQwyGHxZgZTmNI3wzck0R+/rElkwZNCZyermGaJANyN6Thvt5Og9RCvTxbxocEdSCGpQX4oxRTFFKyYiY8t1AWj+4BftdX386Ius/2VGaT394cmPUe9MIyT3wc8PCWAStnSIQbkUuciswBgoHeleRq0PyC6vhQLCCZkbWrOCSFE9YPQJuzSTgBw5FCFbTWOK5OixL1YAWEmoIUopPt+/uHt09uSLzZR8mWFqD14/+an9/q0iIWDJdGP2jEs6EFQOmsTGQItmhUYiVNRZluHDoqW7IZ7Nz0wlK9tooaG5VZ5ebMqYvjXCR4OVqRKgiynz6oDAooShSyj52f3Nm+tPn3z+lRng59Z6+u8fsFAKlgSZbMDlVCSTloudRoAz3BNElopUNAfgTMiMQFsNZbUihNE8lYTRS+H5YxyUhkVpRBjlhbTsMndPXzqXbUTZ9LIqpx88ffPg/OEnT74yA+AdHDY/+E4prrRcTv84qYkMYalxSgkU0Hu6wVBUs6SCgrloKqTjlIcSwOhJQ18GJ9HddPFod2sTS+sJCSPTTbAUJJ9SGLKMYSL3sl6d//KXxk8++sWDL7aWlxypedZ5sH5tolhGy06MTJVij4zBYI0gn7J106gTZIKu1RJFwUiW/jiqJXI+z9VEJSvntOLOdnayO74xigUggWeja1K1IFmsW6EPOhpmXqZ6/v7PTm49fPDBwy84VvZlh6ruzu7/GHcnW3RfGi28AGnZ4lIUA5jBbDV63QeN0VE1xmckAajnnMzopye+9hStymotzO3phW7esJYkuKQZMBgRlBVrIdDryCCT9FqKnf783c/58PzxF3SBX2Ks7q3D9+17dzcuwUcuBDplVjBK1wkzEx1LoYwA1ZbuCY0J3KCSr5Xa50xbeVHIq29zWmk+O+/T0QG2M8toT4Q5kzSaW3arCoFAGUPqYLVWnvzsHe7ar56vjr8+A2zuffxu/u5rxxQwfi5raFs8a7ZYytRljEoDxjwFsEdMHn2JiwVS5Q7mx33yzYHQ0kvtO5u4O93azYMaF3OWkSygVFfIvBQzRHcrWTvhI6F0qwVP3nnn6Lv/9Qs6hK7RAD+N7/78nz757rfursQw7zEG2ChDVkaon6EyKp4SskXQ1wKih5fhuGKMyM4gJSPd3eeLOMDpaR4c1Zx33YAgQCt1onrA3UerSbUQTZ10E+iej975+e1//dZ0pXW8/GTpn/8cE+9/8IO3jyZnWhs0mEbBIMMiFDPM3GKZr6ekMyLjmSJstL3Z+mbPhJlD1rbarM6exvHN0lvn2rMljGWq1dUtBgdr0xjaM2jnrBXm/bOffPjqv/nGX3zR0/9lDQDg5t/563c/fPsbb7++7h2xjFQww6jiKLOzGkG6kQ7r89Jen0kCGZEoBfO2g+a1Wo8+83A9X9iNY+ySBaWgbWFeqi+SSzMaltKok5J79DLp5IOfnv7ev3b7z/+rkyut4bkKyi8Ce/M/+ek7n9S3vvuDO6P8IURmjHpxtFlWV6VadmUtMe9aCm4U6L4I6k0x9NJp1dXnrrrSk4ujW76bk25O9G2YF3d3thaoxYsNPVV2QbXUXtbbD9+5v/pbP4o/+29PfxMDcI0GgN+e5/ad09X3fvDKelWZUs+YM2nGbHNLTnUq6GPk3txGxhOZGJPyaNxFcRu0afYWrOTuyfretAu1sDKh7VpaLe5ujAi5Wylmnm0MtTWV1cHj/+uvzt78m7/z8M//t6s9/y87Xj8eAPhle/O9p2+/cnR8vLZIYIoARCuwnqkMszR1s8JFBmCRovnSJrtGjimKSlRnZNjhOofMyp5NUki6WYkht4n0DBV6IVg25ZO//Gv+8Lv+53/18yv/+Nw1/MLEBT4Tjy6mg1t3bm0OcqtLtsIx5kaBKLWD9MGYgaRz6HzpcKUxwi2NZpkMq4Qr5cXYx7S9MZWDZr2nDLGDTU5Y+no1v/uXv7r5rZP/Jk5OvlAGfN0GAC7w8RvHTx6+P92598orhxFzjuI2PYBRPrUCjt/VTA2SwEaxq2wvJrc2D4FJyWShjKBBZrZ0WS7iOBqH4otm1VDcWPDZez99/OpbD/7PX73Ud7+mH1o6feez8+3m7Q9+vn7zm/eOplyoXIRSEQgzWhnFMXPBjMYUoKy5zcNyHhuXuk8ZXl1dSriMOcpEMh/ptA2deLrXCWnWLs4+/eB+3qk/+9kL+oNfhC/nBP95HL7R7n2mW2++8eqtjVNgKnpvu912Z8Wnqa5rQc9smaPnl0hU27aD8pSHjDjLm7a1ev7w4F5tgshomTmag2iFozNCCPlqw9OTJ589fPx0W1Zx8fBlf3nyOg0ATG8/Wm/t+N5rr9xaV/fMmOfd+emTc1nZrA9uHR9smGPGlDLgph4T55AO1z1i1wxY1fZpu3e7ZI/LOaNDTOsFIFnM0HOqevrhhw/PZpukdv9FGpAX43oNAPCN7dQ1Hd88WFXNG0W23W7blLJycPv45r2blaJxtNATfYuVztvmZm2tK3dzXRU9eVrvHJdskRmCiDEZx8cv0jrhE08++uCjk3prmuPs0/abK2DP/8LXuPgFr+e2pRW3fnGLcAl0aj1diPXG3Xt3NrUYSzHSEH3braj7wdR3W3hGBdQvLrQ5WiGj56KYHdMT4QaybNbt/s/ePy8Hd1Znn3wUj38z+f18fAUG+P/Gm69p+vwU0+bm7RubwMHR5HW9drU5reaWk3adXsx67/Dd01052FTGUhoTJCsEIVsf2ufvvfPx7uBObQ+e8pMv91vkX5sBgDf/5tnnD3br3epwjXp04CyHN24cHRQCcXZRVyk3V/bespZ+etLq0UEBMwAQpBckfL3x0/f++v6Mx9fz08tfowEAAPaHF+fbbT84rJSV9ebo7p2jGyvMpzyyWTJF9Oyok+2enGpzOJXx+3MGsfi0qn7y87/6eLfZfPLh9Xyhr9sAC/7wzZNHpxGsWh8ev/rmvdv9CdeRQwSvEKxM3J3Otl7X0YoBTpsJF598+IsPTo4fveyl9//Gb8kA//aTfwwA9RvnSW7uvvn9N3tbKVuECAwl6HqliwtN1cAyrVfU7tFH7733YC4vkv5eGb8lA9jlkDQAwM2je9/+1qvHiN66mUFtDghW3ErxaqT6+aMH93/14OnuBfNRXwq/JQP886Btbt997RuvHG+cZoB7thDAUtFb312cPHrw+dPTpyf5wg64l/vsa36/lwTX64Ojg+Ojw1WxuU03bx0UGObtyZOnZ9vtbnt+dt7yJX5U9wt88lfwni8DWi3dvbzijIdx56iuK/rc2m7b2nmk8oUj4r/MB381b/sSGL87sgIwZ/Xxy8ID8RWtfY899thjjz322GOPPfbYY4899thjjz322GOPPfbYY4899thjjz322GOPPfbYY4899thjjz322GOPPfbYY4899thjjz322GOPPf5Fwv8DbXHA9CJRFGsAAAAASUVORK5CYII=;direction=north;flipH=0;flipV=1;rotation=0;shadow=0;movable=1;resizable=1;rotatable=1;deletable=1;editable=1;locked=0;connectable=1;" vertex="1" parent="9NufvOx4gk8zNC-zm_X0-5">
          <mxGeometry y="50" width="240" height="240" as="geometry" />
        </mxCell>
      </root>
    </mxGraphModel>
  </diagram>
</mxfile>
